<svg width="44" height="44" viewBox="0 0 44 44" fill="none" xmlns="http://www.w3.org/2000/svg">
<rect width="44" height="44" rx="22" fill="#E5F066"/>
<path d="M14 21.25C13.5858 21.25 13.25 21.5858 13.25 22C13.25 22.4142 13.5858 22.75 14 22.75L14 21.25ZM30 22.75C30.4142 22.75 30.75 22.4142 30.75 22C30.75 21.5858 30.4142 21.25 30 21.25V22.75ZM26.528 16.4673C26.2338 16.1757 25.7589 16.1778 25.4673 16.472C25.1757 16.7662 25.1778 17.2411 25.472 17.5327L26.528 16.4673ZM27.763 18.7473L27.235 19.28L27.763 18.7473ZM27.763 25.2527L28.2909 25.7854L27.763 25.2527ZM25.472 26.4673C25.1778 26.7589 25.1757 27.2338 25.4673 27.528C25.7589 27.8222 26.2338 27.8243 26.528 27.5327L25.472 26.4673ZM29.9801 21.6867L30.7241 21.5918V21.5918L29.9801 21.6867ZM29.9801 22.3133L30.7241 22.4082V22.4082L29.9801 22.3133ZM14 22.75L30 22.75V21.25L14 21.25L14 22.75ZM25.472 17.5327L27.235 19.28L28.2909 18.2146L26.528 16.4673L25.472 17.5327ZM27.235 24.72L25.472 26.4673L26.528 27.5327L28.2909 25.7854L27.235 24.72ZM27.235 19.28C27.9505 19.9891 28.4413 20.4772 28.7734 20.8907C29.096 21.2924 29.2067 21.5504 29.2361 21.7815L30.7241 21.5918C30.6453 20.9737 30.3504 20.4588 29.9429 19.9515C29.545 19.456 28.9814 18.8989 28.2909 18.2146L27.235 19.28ZM28.2909 25.7854C28.9814 25.1011 29.545 24.544 29.9429 24.0485C30.3504 23.5412 30.6453 23.0263 30.7241 22.4082L29.2361 22.2185C29.2067 22.4496 29.096 22.7076 28.7734 23.1093C28.4413 23.5228 27.9505 24.0109 27.235 24.72L28.2909 25.7854ZM29.2361 21.7815C29.2546 21.9266 29.2546 22.0734 29.2361 22.2185L30.7241 22.4082C30.7586 22.1371 30.7586 21.8629 30.7241 21.5918L29.2361 21.7815Z" fill="#000009"/>
</svg>
