<svg width="298" height="97" viewBox="0 0 298 97" fill="none" xmlns="http://www.w3.org/2000/svg">
<path d="M116.427 32.5947L117.269 32.0554L116.427 32.5947ZM94.9266 93.0947L94.5837 94.0341L94.9266 93.0947ZM171.927 45.0947L172.359 44.1929L171.927 45.0947ZM297.927 52.0947L286.384 51.7887L291.89 61.9382L297.927 52.0947ZM0.853224 13.9991C1.4337 13.7253 2.03083 13.4509 2.64393 13.1764L1.82672 11.351C1.20182 11.6307 0.592674 11.9107 -1.34408e-05 12.1903L0.853224 13.9991ZM6.31933 11.6113C7.51055 11.1286 8.74754 10.6499 10.0264 10.179L9.33528 8.30224C8.03655 8.78046 6.77955 9.26682 5.56821 9.75768L6.31933 11.6113ZM13.7874 8.85894C15.0245 8.44549 16.2932 8.04144 17.5905 7.64959L17.0122 5.73502C15.6961 6.13254 14.4089 6.54249 13.1535 6.96208L13.7874 8.85894ZM21.4281 6.55048C22.6953 6.20714 23.9851 5.87694 25.2951 5.56216L24.8278 3.61751C23.4989 3.93685 22.1905 4.2718 20.9051 4.62007L21.4281 6.55048ZM29.1878 4.68625C30.4775 4.41576 31.7833 4.16148 33.1031 3.92541L32.7509 1.95666C31.4112 2.1963 30.0859 2.45437 28.7772 2.72884L29.1878 4.68625ZM37.038 3.28328C38.3448 3.09066 39.6626 2.91709 40.9895 2.7644L40.7609 0.777512C39.4124 0.932682 38.0735 1.10903 36.7463 1.30466L37.038 3.28328ZM44.9542 2.37419C46.2727 2.26663 47.598 2.18095 48.9283 2.11886L48.835 0.121034C47.481 0.184232 46.1326 0.271421 44.7916 0.380813L44.9542 2.37419ZM52.9071 2.00536C54.2309 1.99202 55.5576 2.00344 56.8854 2.04129L56.9424 0.0421051C55.5881 0.00350159 54.2357 -0.00813293 52.8869 0.00545847L52.9071 2.00536ZM60.857 2.23483C62.1775 2.32646 63.4973 2.44583 64.8146 2.59457L65.039 0.607193C63.6923 0.455138 62.3438 0.333191 60.9954 0.239631L60.857 2.23483ZM68.7497 3.1293C70.0556 3.33752 71.3572 3.57649 72.6527 3.84781L73.0626 1.89028C71.7347 1.61217 70.4014 1.3674 69.0646 1.15425L68.7497 3.1293ZM76.5124 4.75854C77.7887 5.09459 79.0572 5.46427 80.3163 5.86916L80.9286 3.96519C79.6345 3.54906 78.3316 3.16938 77.0216 2.82446L76.5124 4.75854ZM84.0508 7.18613C85.2791 7.65878 86.4964 8.16761 87.7012 8.71415L88.5275 6.89281C87.2864 6.3298 86.033 5.80593 84.7691 5.31956L84.0508 7.18613ZM91.2521 10.4558C92.4117 11.0689 93.5576 11.7201 94.6882 12.4108L95.7309 10.7041C94.5644 9.9915 93.3826 9.31988 92.187 8.68771L91.2521 10.4558ZM97.9946 14.5764C99.0653 15.327 100.12 16.1166 101.158 16.9466L102.407 15.3849C101.336 14.5282 100.248 13.7133 99.1426 12.9387L97.9946 14.5764ZM104.167 19.5132C105.133 20.3913 106.082 21.3084 107.012 22.2657L108.446 20.8719C107.487 19.8849 106.508 18.9391 105.512 18.0332L104.167 19.5132ZM109.683 25.1871C110.53 26.1717 111.36 27.1937 112.17 28.2543L113.759 27.04C112.926 25.9488 112.072 24.8966 111.199 23.8825L109.683 25.1871ZM114.481 31.4615C114.854 32.0097 115.222 32.5671 115.584 33.134L117.269 32.0554C116.896 31.4734 116.518 30.9009 116.136 30.3376L114.481 31.4615ZM115.584 33.134C115.948 33.7012 116.304 34.2638 116.652 34.8218L118.348 33.762C117.996 33.1976 117.636 32.6288 117.269 32.0554L115.584 33.134ZM118.658 38.1149C119.345 39.2719 119.998 40.408 120.621 41.5233L122.367 40.5489C121.736 39.4176 121.073 38.2663 120.379 37.0946L118.658 38.1149ZM122.466 44.9458C123.077 46.1211 123.651 47.2718 124.19 48.3982L125.994 47.5355C125.446 46.3882 124.861 45.2176 124.241 44.0234L122.466 44.9458ZM125.795 51.9254C126.327 53.1585 126.814 54.3601 127.258 55.5305L129.128 54.8219C128.673 53.622 128.175 52.3925 127.632 51.133L125.795 51.9254ZM128.535 59.184C128.943 60.4598 129.294 61.6945 129.594 62.8891L131.534 62.4029C131.224 61.1651 130.86 59.8896 130.441 58.5757L128.535 59.184ZM130.387 66.6399C130.611 67.9537 130.766 69.2119 130.855 70.4159L132.85 70.267C132.755 68.9966 132.593 67.676 132.359 66.3041L130.387 66.6399ZM130.923 74.2321C130.866 75.5573 130.721 76.8044 130.497 77.9765L132.461 78.3516C132.704 77.0792 132.86 75.7355 132.922 74.3188L130.923 74.2321ZM129.487 81.5734C129.029 82.7741 128.474 83.8774 127.834 84.8883L129.524 85.9577C130.236 84.8324 130.851 83.6094 131.355 82.2856L129.487 81.5734ZM125.535 87.7952C124.666 88.6844 123.71 89.4759 122.684 90.1739L123.809 91.8277C124.94 91.0586 125.998 90.1824 126.965 89.1933L125.535 87.7952ZM119.416 91.9869C118.284 92.4932 117.097 92.9132 115.87 93.2506L116.4 95.179C117.718 94.8166 119.001 94.3632 120.232 93.8128L119.416 91.9869ZM112.158 94.0083C110.912 94.1807 109.643 94.279 108.368 94.3067L108.411 96.3062C109.76 96.2769 111.106 96.1729 112.432 95.9894L112.158 94.0083ZM104.557 94.1843C103.284 94.0759 102.019 93.9014 100.776 93.6647L100.402 95.6295C101.712 95.8789 103.045 96.0629 104.387 96.1771L104.557 94.1843ZM97.0739 92.7568C96.4616 92.5714 95.8595 92.3708 95.2695 92.1554L94.5837 94.0341C95.2094 94.2625 95.847 94.475 96.4944 94.671L97.0739 92.7568ZM95.2695 92.1554C94.6858 91.9422 94.1115 91.7005 93.5473 91.4315L92.6866 93.2368C93.3065 93.5324 93.9391 93.7988 94.5837 94.0341L95.2695 92.1554ZM90.3158 89.5213C89.3054 88.8018 88.3374 87.9904 87.4171 87.0979L86.0247 88.5336C87.0132 89.4922 88.0583 90.369 89.1557 91.1505L90.3158 89.5213ZM84.8777 84.2804C84.1005 83.2982 83.371 82.2537 82.6933 81.1565L80.9917 82.2074C81.7083 83.3677 82.482 84.4759 83.3093 85.5214L84.8777 84.2804ZM80.8603 77.7993C80.3119 76.6576 79.8155 75.477 79.3746 74.266L77.4953 74.9502C77.9583 76.2219 78.4801 77.4632 79.0575 78.6652L80.8603 77.7993ZM78.2354 70.6023C77.9148 69.3679 77.6509 68.1134 77.4469 66.8471L75.4723 67.1653C75.6864 68.494 75.9633 69.8101 76.2996 71.1051L78.2354 70.6023ZM77.0186 63.0365C76.9374 61.7602 76.9187 60.4811 76.9656 59.2071L74.9669 59.1336C74.9175 60.4761 74.9373 61.8222 75.0226 63.1635L77.0186 63.0365ZM77.3071 55.3996C77.4895 54.1368 77.741 52.8878 78.0647 51.6609L76.1309 51.1507C75.787 52.4542 75.5205 53.7781 75.3277 55.1138L77.3071 55.3996ZM79.2576 48.0473C79.7281 46.8738 80.2735 45.7301 80.8965 44.6242L79.1541 43.6425C78.4865 44.8274 77.9034 46.0505 77.4012 47.303L79.2576 48.0473ZM82.9773 41.4599C83.7327 40.4683 84.5643 39.5186 85.4752 38.618L84.069 37.1958C83.0909 38.1629 82.1976 39.1829 81.3863 40.2479L82.9773 41.4599ZM88.3449 36.1476C89.333 35.4078 90.3926 34.7152 91.5264 34.076L90.5441 32.3338C89.3362 33.0149 88.2043 33.7545 87.1462 34.5467L88.3449 36.1476ZM94.9556 32.4058C96.0998 31.9286 97.3062 31.4985 98.5768 31.1203L98.0062 29.2034C96.67 29.6012 95.397 30.0547 94.1857 30.56L94.9556 32.4058ZM102.277 30.2056C103.485 29.9638 104.743 29.7644 106.053 29.6102L105.819 27.6239C104.458 27.7841 103.147 27.9918 101.884 28.2445L102.277 30.2056ZM109.906 29.2969C111.165 29.238 112.467 29.2178 113.811 29.2383L113.842 27.2385C112.458 27.2174 111.115 27.2382 109.812 27.2991L109.906 29.2969ZM117.626 29.3999C118.891 29.4864 120.19 29.6066 121.524 29.7622L121.756 27.7757C120.391 27.6165 119.06 27.4933 117.762 27.4045L117.626 29.3999ZM125.349 30.2908C126.599 30.4898 127.878 30.7181 129.186 30.9767L129.574 29.0148C128.243 28.7514 126.939 28.5187 125.663 28.3157L125.349 30.2908ZM132.99 31.797C134.228 32.0854 135.49 32.3997 136.776 32.7407L137.289 30.8075C135.984 30.4615 134.702 30.1423 133.443 29.8491L132.99 31.797ZM140.518 33.7885C141.752 34.1522 143.008 34.5394 144.285 34.9508L144.898 33.0472C143.606 32.6308 142.334 32.2386 141.083 31.87L140.518 33.7885ZM147.937 36.1739C149.173 36.6032 150.428 37.0543 151.702 37.5278L152.399 35.6531C151.111 35.1747 149.843 34.7187 148.593 34.2846L147.937 36.1739ZM155.27 38.8927C156.468 39.364 157.682 39.8544 158.913 40.3642L159.678 38.5165C158.437 38.0022 157.211 37.5073 156.002 37.0315L155.27 38.8927ZM162.549 41.9072C163.707 42.41 164.879 42.9296 166.064 43.4661L166.889 41.644C165.694 41.1033 164.513 40.5796 163.345 40.0727L162.549 41.9072ZM169.663 45.1272C170.27 45.4126 170.881 45.7024 171.494 45.9965L172.359 44.1929C171.741 43.8967 171.126 43.6049 170.515 43.3174L169.663 45.1272ZM171.494 45.9965C172.066 46.2706 172.646 46.5565 173.234 46.8531L174.135 45.0674C173.536 44.7654 172.944 44.4735 172.359 44.1929L171.494 45.9965ZM176.703 48.6656C177.824 49.2678 178.973 49.8969 180.15 50.5463L181.116 48.7949C179.936 48.1441 178.78 47.511 177.65 46.9037L176.703 48.6656ZM183.608 52.4566C184.735 53.0782 185.887 53.7107 187.064 54.3482L188.016 52.5893C186.845 51.9554 185.698 51.3257 184.574 50.7054L183.608 52.4566ZM190.553 56.2058C191.705 56.808 192.88 57.4099 194.081 58.007L194.971 56.2163C193.785 55.626 192.621 55.0302 191.479 54.4333L190.553 56.2058ZM197.654 59.7316C198.838 60.2849 200.045 60.8297 201.276 61.3622L202.07 59.5267C200.858 59.0023 199.669 58.4654 198.5 57.9196L197.654 59.7316ZM204.944 62.8812C206.162 63.3623 207.401 63.8286 208.663 64.2767L209.332 62.392C208.094 61.9521 206.876 61.494 205.679 61.0211L204.944 62.8812ZM212.434 65.5368C213.685 65.9288 214.958 66.301 216.253 66.6504L216.774 64.7194C215.506 64.3772 214.259 64.0125 213.031 63.6282L212.434 65.5368ZM220.117 67.6077C221.397 67.8965 222.697 68.1618 224.019 68.4009L224.375 66.4329C223.082 66.199 221.81 65.9394 220.557 65.6567L220.117 67.6077ZM227.953 69.0243C229.254 69.2011 230.573 69.3517 231.913 69.4738L232.094 67.482C230.785 67.3627 229.494 67.2154 228.223 67.0425L227.953 69.0243ZM235.89 69.7475C237.201 69.8086 238.529 69.8419 239.876 69.8454L239.881 67.8454C238.564 67.842 237.265 67.8094 235.984 67.7497L235.89 69.7475ZM243.85 69.77C245.155 69.7171 246.478 69.6361 247.817 69.5253L247.652 67.5321C246.341 67.6406 245.046 67.7199 243.769 67.7716L243.85 69.77ZM251.771 69.116C253.069 68.9549 254.382 68.7658 255.711 68.5473L255.386 66.5738C254.083 66.7881 252.796 66.9734 251.525 67.1312L251.771 69.116ZM259.634 67.8246C260.912 67.564 262.204 67.2763 263.511 66.9603L263.04 65.0163C261.757 65.3267 260.489 65.6092 259.234 65.8649L259.634 67.8246ZM267.343 65.9625C268.6 65.612 269.87 65.2353 271.153 64.8316L270.553 62.9238C269.291 63.321 268.042 63.6914 266.806 64.0359L267.343 65.9625ZM274.945 63.5723C276.167 63.1453 277.4 62.6938 278.645 62.2172L277.929 60.3494C276.703 60.8191 275.488 61.2638 274.285 61.6843L274.945 63.5723ZM282.33 60.7458C283.54 60.2432 284.76 59.7171 285.991 59.1667L285.175 57.3408C283.96 57.8841 282.756 58.4032 281.563 58.8988L282.33 60.7458ZM289.564 57.5153C290.745 56.9514 291.936 56.3653 293.137 55.7565L292.233 53.9726C291.046 54.5744 289.869 55.1534 288.702 55.7104L289.564 57.5153Z" fill="#000009"/>
</svg>
