<svg width="129" height="24" viewBox="0 0 129 24" fill="none" xmlns="http://www.w3.org/2000/svg">
<path d="M110.727 7.41223C109.639 7.41223 108.746 7.09659 108.05 6.4653C107.375 5.83401 107.038 4.96326 107.038 3.85305C107.038 2.76462 107.342 1.89387 107.952 1.24081C108.583 0.565984 109.508 0.22857 110.727 0.22857H124.801C126.02 0.22857 126.934 0.565984 127.544 1.24081C128.175 1.89387 128.491 2.76462 128.491 3.85305C128.491 4.96326 128.142 5.83401 127.446 6.4653C126.771 7.09659 125.889 7.41223 124.801 7.41223C124.061 7.41223 123.462 7.33604 123.005 7.18366C122.569 7.00951 122.21 6.81359 121.927 6.59591C121.644 6.35645 121.372 6.16053 121.111 6.00815C120.85 5.834 120.523 5.74693 120.131 5.74693L119.837 6.33468C119.925 6.5306 120.077 6.81359 120.295 7.18366C120.512 7.53196 120.719 8.04353 120.915 8.71836C121.111 9.37142 121.209 10.2639 121.209 11.3959V20.8326C121.209 21.7251 120.872 22.4653 120.197 23.053C119.544 23.6408 118.738 23.9347 117.78 23.9347C116.801 23.9347 115.974 23.6408 115.299 23.053C114.646 22.4653 114.319 21.7251 114.319 20.8326V11.3959C114.319 10.2639 114.417 9.37142 114.613 8.71836C114.809 8.04353 115.016 7.53196 115.233 7.18366C115.473 6.81359 115.636 6.5306 115.723 6.33468L115.397 5.74693C115.005 5.74693 114.678 5.834 114.417 6.00815C114.156 6.16053 113.884 6.35645 113.601 6.59591C113.318 6.81359 112.959 7.00951 112.523 7.18366C112.088 7.33604 111.489 7.41223 110.727 7.41223Z" fill="black"/>
<path d="M91.8939 23.9347C90.8272 23.9347 89.9783 23.6408 89.347 23.053C88.7374 22.4653 88.4327 21.6054 88.4327 20.4734V15.8694C88.4327 13.5619 88.781 11.8095 89.4776 10.6122C90.1742 9.41495 91.0558 8.55509 92.1225 8.03264L91.9592 7.41223H91.4041C90.4028 7.41223 89.6082 7.09659 89.0204 6.4653C88.4544 5.81224 88.1606 4.9306 88.1388 3.8204C88.117 2.73197 88.4 1.86122 88.9878 1.20816C89.5973 0.5551 90.4028 0.22857 91.4041 0.22857H102.833C105.162 0.22857 106.327 1.317 106.327 3.49387C106.327 4.47346 106.044 5.25713 105.478 5.84489C104.912 6.43264 104.03 6.72652 102.833 6.72652H96.4653C95.6599 6.72652 95.2572 7.19455 95.2572 8.1306V10.4816C96.2803 10.1986 97.347 9.87209 98.4572 9.50203C99.5674 9.13196 100.634 8.94693 101.657 8.94693C102.746 8.94693 103.584 9.21903 104.171 9.76325C104.781 10.2857 105.086 11.0911 105.086 12.1796C105.086 13.2462 104.781 14.0517 104.171 14.5959C103.584 15.1183 102.746 15.3905 101.657 15.4122C100.634 15.434 99.5565 15.2707 98.4245 14.9224C97.3143 14.5524 96.2476 14.2258 95.2245 13.9428L95.1919 20.4734C95.1919 21.6054 94.8871 22.4653 94.2776 23.053C93.6898 23.6408 92.8953 23.9347 91.8939 23.9347Z" fill="black"/>
<path d="M69.3781 23.9347C68.2897 23.9347 67.4625 23.5973 66.8965 22.9225C66.3305 22.2476 66.0475 21.3442 66.0475 20.2122V4.89798C66.0475 3.76601 66.2543 2.85173 66.6679 2.15513C67.1033 1.43676 67.6584 0.914313 68.3332 0.587783C69.0298 0.261253 69.7808 0.0979883 70.5863 0.0979883C71.7836 0.0979883 72.7958 0.413633 73.623 1.04492C74.4502 1.67622 75.0924 2.78642 75.5495 4.37553L79.0761 16.4245H79.5985V3.88574C79.5985 2.732 79.8924 1.8286 80.4801 1.17554C81.0679 0.500708 81.906 0.163293 82.9944 0.163293C84.1264 0.163293 84.9645 0.500708 85.5087 1.17554C86.0747 1.8286 86.3577 2.732 86.3577 3.88574V18.6449C86.3577 20.4735 85.955 21.8231 85.1495 22.6939C84.3441 23.5646 83.2121 24 81.7536 24C80.2733 24 79.1196 23.6082 78.2924 22.8245C77.4652 22.0408 76.8339 20.8871 76.3985 19.3633L74.0802 11.4286C74.0366 11.2109 73.9495 11.015 73.8189 10.8408C73.7101 10.6449 73.5577 10.547 73.3618 10.547C73.1223 10.547 72.9591 10.6449 72.872 10.8408C72.7849 11.015 72.7414 11.2109 72.7414 11.4286V20.2122C72.7414 21.3442 72.4584 22.2476 71.8924 22.9225C71.3264 23.5973 70.4883 23.9347 69.3781 23.9347Z" fill="black"/>
<path d="M52.982 0.163258C55.5724 0.163258 57.684 0.653055 59.3167 1.63265C60.9711 2.59047 62.1901 3.96189 62.9738 5.74693C63.7792 7.51019 64.182 9.61087 64.182 12.049C64.182 16.1415 63.3003 19.1455 61.5371 21.0612C59.7738 22.9768 57.0745 23.9347 53.4391 23.9347H52.0024C50.9357 23.9347 49.9452 23.8258 49.0309 23.6081C48.1167 23.3904 47.3112 22.9986 46.6146 22.4326C45.918 21.8449 45.3738 21.0285 44.982 19.9836C44.5901 18.9387 44.3942 17.5891 44.3942 15.9347C44.3942 14.3891 44.601 13.0503 45.0146 11.9183C45.45 10.7864 45.9616 9.88297 46.5493 9.20815C47.1371 8.53332 47.6704 8.11971 48.1493 7.96733L47.9861 7.34692H47.431C46.4296 7.34692 45.635 7.03128 45.0473 6.39999C44.4813 5.74693 44.1874 4.87618 44.1657 3.78774C44.1439 2.69931 44.4269 1.82856 45.0146 1.1755C45.6242 0.500673 46.4296 0.163258 47.431 0.163258H52.982ZM50.631 15.5102C50.631 15.9673 50.7289 16.283 50.9248 16.4571C51.1425 16.6313 51.4582 16.7183 51.8718 16.7183H53.635C54.7452 16.7183 55.6051 16.4789 56.2146 16C56.8241 15.5211 57.2486 14.9115 57.4881 14.1714C57.7493 13.4095 57.8799 12.6041 57.8799 11.7551C57.8799 10.9061 57.7493 10.0898 57.4881 9.3061C57.2486 8.52243 56.8241 7.88026 56.2146 7.37958C55.6051 6.8789 54.7452 6.62856 53.635 6.62856H51.8718C51.4582 6.62856 51.1425 6.72652 50.9248 6.92243C50.7289 7.09658 50.631 7.42311 50.631 7.90203V15.5102Z" fill="black"/>
<path d="M23.954 23.9347C22.4955 23.717 21.5485 23.053 21.1131 21.9428C20.6778 20.8109 20.7648 19.385 21.3744 17.6653L25.6846 5.4204C26.0764 4.28843 26.5227 3.31972 27.0233 2.51428C27.5458 1.70884 28.188 1.08843 28.9499 0.65306C29.7335 0.217687 30.7022 0 31.856 0C33.5975 0 34.9036 0.478911 35.7743 1.43673C36.6669 2.39456 37.407 3.72244 37.9948 5.4204L42.2723 17.6653C42.8818 19.385 42.9907 20.8109 42.5988 21.9428C42.2288 23.053 41.3036 23.717 39.8233 23.9347C38.626 24.087 37.5811 23.9455 36.6886 23.5102C35.8179 23.0748 35.2954 22.3673 35.1213 21.3877C34.9907 20.7347 34.9689 20.1905 35.056 19.7551C35.1648 19.3197 35.2628 18.9714 35.3499 18.7102C35.4152 18.4925 35.4152 18.2857 35.3499 18.0898C35.3063 17.8721 35.1431 17.7632 34.8601 17.7632H28.7866C28.5036 17.7632 28.3295 17.8721 28.2642 18.0898C28.2206 18.2857 28.2424 18.4925 28.3295 18.7102C28.4165 18.9714 28.5036 19.3197 28.5907 19.7551C28.6778 20.1905 28.6669 20.7347 28.558 21.3877C28.3839 22.3673 27.8723 23.0748 27.0233 23.5102C26.1744 23.9455 25.1512 24.087 23.954 23.9347ZM34.2397 13.1918L32.5417 7.86938C32.4982 7.65169 32.422 7.48843 32.3131 7.37958C32.2261 7.24897 32.0737 7.18367 31.856 7.18367C31.6383 7.18367 31.475 7.24897 31.3662 7.37958C31.2791 7.48843 31.2029 7.65169 31.1376 7.86938L29.4723 13.1918H34.2397Z" fill="black"/>
<path d="M7.3481 23.902C6.34674 23.8585 5.41068 23.717 4.53994 23.4775C3.69096 23.2381 2.93994 22.8353 2.28688 22.2694C1.63382 21.6816 1.12225 20.8762 0.752186 19.853C0.403887 18.8299 0.229737 17.5238 0.229737 15.9347C0.229737 14.3891 0.43654 13.0503 0.850145 11.9183C1.28552 10.7864 1.79708 9.88297 2.38484 9.20815C2.97259 8.53332 3.50592 8.11971 3.98483 7.96733L3.82157 7.34692H3.26647C2.26511 7.34692 1.47055 7.03128 0.882798 6.39999C0.316812 5.74693 0.0229348 4.87618 0.00116618 3.78774C-0.0206025 2.69931 0.26239 1.82856 0.850145 1.1755C1.45967 0.500673 2.26511 0.163258 3.26647 0.163258H12.2461C14.5971 0.163258 16.295 0.729245 17.3399 1.86122C18.3848 2.97142 18.9073 4.41904 18.9073 6.20407C18.9073 7.6408 18.5699 8.83808 17.895 9.7959C17.242 10.7537 16.2515 11.3306 14.9236 11.5265V12.0163C16.3603 12.0816 17.525 12.5823 18.4175 13.5183C19.3318 14.4326 19.7889 15.7932 19.7889 17.6C19.7889 19.5592 19.2229 21.1156 18.0909 22.2694C16.959 23.4013 15.0977 23.9564 12.5073 23.9347L7.3481 23.902ZM6.46646 9.2408C6.46646 9.71971 6.55354 10.0354 6.72769 10.1877C6.90184 10.3401 7.22837 10.4163 7.70728 10.4163H10.7114C11.5386 10.4163 12.1699 10.2966 12.6052 10.0571C13.0406 9.7959 13.2583 9.29522 13.2583 8.55509C13.2583 7.79318 13.0406 7.2925 12.6052 7.05305C12.1699 6.81359 11.5386 6.69386 10.7114 6.69386H7.70728C7.22837 6.69386 6.90184 6.75917 6.72769 6.88978C6.55354 7.02039 6.46646 7.33604 6.46646 7.83672V9.2408ZM6.46646 15.8041C6.46646 16.283 6.55354 16.6095 6.72769 16.7836C6.92361 16.9578 7.27191 17.0449 7.77259 17.0449H11.1358C11.9848 17.0449 12.6379 16.8925 13.095 16.5877C13.5522 16.283 13.7807 15.7388 13.7807 14.9551C13.7807 14.1714 13.5522 13.6381 13.095 13.3551C12.6379 13.0503 11.9848 12.8979 11.1358 12.8979H7.77259C7.27191 12.8979 6.92361 12.9741 6.72769 13.1265C6.55354 13.2789 6.46646 13.5945 6.46646 14.0734V15.8041Z" fill="black"/>
</svg>
