<svg width="96" height="165" viewBox="0 0 96 165" fill="none" xmlns="http://www.w3.org/2000/svg">
<path d="M96 158.998L86.1065 153.044L85.8968 164.589L96 158.998ZM48.234 0.165049C47.6847 0.221986 47.2855 0.713473 47.3425 1.26281C47.3994 1.81216 47.8909 2.21133 48.4402 2.15439L48.234 0.165049ZM44.5772 2.70889C45.1206 2.61014 45.4811 2.08958 45.3823 1.5462C45.2836 1.00281 44.763 0.642366 44.2196 0.741116L44.5772 2.70889ZM40.2615 1.60301C39.7262 1.73873 39.4022 2.28274 39.5379 2.81809C39.6736 3.35344 40.2176 3.6774 40.753 3.54168L40.2615 1.60301ZM36.9907 4.62878C37.516 4.45814 37.8035 3.894 37.6328 3.36874C37.4622 2.84347 36.898 2.556 36.3728 2.72664L36.9907 4.62878ZM32.5657 4.10334C32.0528 4.3082 31.8031 4.89005 32.008 5.40293C32.2128 5.91582 32.7947 6.16551 33.3076 5.96065L32.5657 4.10334ZM29.7217 7.53481C30.2196 7.29573 30.4294 6.69832 30.1903 6.20047C29.9512 5.70262 29.3538 5.49284 28.8559 5.73192L29.7217 7.53481ZM25.2678 7.61208C24.788 7.8856 24.6208 8.49629 24.8943 8.97608C25.1678 9.45588 25.7785 9.62309 26.2583 9.34957L25.2678 7.61208ZM22.9388 11.4066C23.3971 11.0984 23.5187 10.477 23.2106 10.0187C22.9024 9.56044 22.281 9.43875 21.8227 9.74695L22.9388 11.4066ZM18.5434 12.1407C18.1104 12.4836 18.0374 13.1125 18.3802 13.5455C18.723 13.9785 19.352 14.0516 19.785 13.7087L18.5434 12.1407ZM16.8286 16.2503C17.2323 15.8734 17.254 15.2406 16.8772 14.837C16.5003 14.4333 15.8675 14.4115 15.4638 14.7884L16.8286 16.2503ZM12.6127 17.6837C12.2423 18.0934 12.274 18.7257 12.6836 19.0962C13.0932 19.4666 13.7256 19.4349 14.0961 19.0253L12.6127 17.6837ZM11.6101 22.0253C11.9436 21.5851 11.8572 20.9579 11.417 20.6243C10.9768 20.2908 10.3495 20.3773 10.016 20.8175L11.6101 22.0253ZM7.70609 24.1606C7.41235 24.6283 7.55337 25.2455 8.02106 25.5393C8.48876 25.833 9.10602 25.692 9.39976 25.2243L7.70609 24.1606ZM7.47388 28.6109C7.72575 28.1194 7.53148 27.5168 7.03998 27.2649C6.54847 27.0131 5.94584 27.2073 5.69397 27.6989L7.47388 28.6109ZM3.99766 31.3899C3.78847 31.901 4.03324 32.485 4.54437 32.6942C5.05551 32.9034 5.63945 32.6586 5.84864 32.1475L3.99766 31.3899ZM4.52278 35.8105C4.68956 35.284 4.39795 34.722 3.87145 34.5552C3.34495 34.3884 2.78294 34.68 2.61615 35.2065L4.52278 35.8105ZM1.54118 39.1266C1.41565 39.6645 1.74988 40.2022 2.28771 40.3278C2.82554 40.4533 3.3633 40.1191 3.48883 39.5812L1.54118 39.1266ZM2.74064 43.4148C2.82705 42.8693 2.45489 42.3571 1.9094 42.2707C1.36392 42.1843 0.851675 42.5564 0.765272 43.1019L2.74064 43.4148ZM0.268465 47.1113C0.218625 47.6613 0.62411 48.1476 1.17414 48.1975C1.72417 48.2473 2.21046 47.8418 2.2603 47.2918L0.268465 47.1113ZM2.0285 51.201C2.04451 50.6489 1.60997 50.1884 1.05791 50.1724C0.505862 50.1564 0.0453541 50.5909 0.0293412 51.143L2.0285 51.201ZM0.0198905 55.1356C0.0311851 55.6878 0.487963 56.1262 1.04013 56.1149C1.5923 56.1037 2.03077 55.6469 2.01947 55.0947L0.0198905 55.1356ZM2.17797 58.9076C2.14317 58.3564 1.66813 57.9378 1.11694 57.9726C0.565754 58.0074 0.147144 58.4825 0.18195 59.0337L2.17797 58.9076ZM0.515853 62.9287C0.575632 63.4778 1.06918 63.8744 1.61822 63.8146C2.16726 63.7548 2.56388 63.2613 2.5041 62.7122L0.515853 62.9287ZM3.00722 66.4897C2.9209 65.9442 2.40871 65.5719 1.86321 65.6583C1.31771 65.7446 0.945475 66.2568 1.03179 66.8023L3.00722 66.4897ZM1.74292 70.6514C1.85756 71.1916 2.38845 71.5366 2.92871 71.422C3.46897 71.3074 3.814 70.7765 3.69937 70.2362L1.74292 70.6514ZM4.59201 73.9345C4.44718 73.4015 3.89773 73.0869 3.36477 73.2317C2.83181 73.3765 2.51717 73.926 2.662 74.4589L4.59201 73.9345ZM3.80342 78.2104C3.9804 78.7335 4.54797 79.0142 5.07113 78.8372C5.59429 78.6602 5.87493 78.0926 5.69796 77.5695L3.80342 78.2104ZM7.03034 81.1229C6.81926 80.6126 6.23442 80.3699 5.72407 80.581C5.21371 80.7921 4.97109 81.3769 5.18217 81.8873L7.03034 81.1229ZM6.81189 85.4652C7.05884 85.9592 7.6595 86.1594 8.1535 85.9125C8.64749 85.6655 8.84775 85.0648 8.6008 84.5708L6.81189 85.4652ZM10.4199 87.8877C10.1356 87.4142 9.5213 87.2607 9.04778 87.545C8.57427 87.8293 8.42085 88.4436 8.7051 88.9171L10.4199 87.8877ZM10.8709 92.2119C11.1933 92.6603 11.8182 92.7625 12.2666 92.4402C12.7151 92.1178 12.8173 91.4929 12.4949 91.0445L10.8709 92.2119ZM14.8273 94.0085C14.4669 93.59 13.8355 93.5429 13.417 93.9033C12.9985 94.2636 12.9513 94.8951 13.3117 95.3136L14.8273 94.0085ZM16.0235 98.1871C16.4206 98.5709 17.0537 98.56 17.4375 98.1629C17.8212 97.7657 17.8104 97.1326 17.4132 96.7489L16.0235 98.1871ZM20.2413 99.2359C19.8098 98.8911 19.1806 98.9615 18.8358 99.3929C18.4911 99.8244 18.5614 100.454 18.9929 100.798L20.2413 99.2359ZM22.1945 103.117C22.6567 103.419 23.2765 103.289 23.5788 102.827C23.8812 102.365 23.7516 101.745 23.2895 101.443L22.1945 103.117ZM26.5348 103.355C26.0464 103.097 25.4414 103.284 25.1835 103.772C24.9256 104.261 25.1124 104.866 25.6008 105.124L26.5348 103.355ZM29.1721 106.807C29.6817 107.02 30.2674 106.779 30.4803 106.27C30.6932 105.76 30.4527 105.174 29.9431 104.962L29.1721 106.807ZM33.4876 106.266C32.9616 106.097 32.3986 106.387 32.23 106.913C32.0614 107.438 32.3511 108.001 32.877 108.17L33.4876 106.266ZM36.669 109.219C37.2067 109.345 37.7448 109.012 37.871 108.474C37.9973 107.936 37.6637 107.398 37.126 107.272L36.669 109.219ZM40.8477 108C40.3022 107.914 39.79 108.286 39.7037 108.832C39.6174 109.377 39.9897 109.889 40.5352 109.976L40.8477 108ZM44.4314 110.456C44.9814 110.506 45.4674 110.1 45.5169 109.55C45.5664 109 45.1605 108.514 44.6105 108.464L44.4314 110.456ZM48.3974 108.687C47.8453 108.671 47.385 109.106 47.3692 109.658C47.3534 110.21 47.7881 110.67 48.3401 110.686L48.3974 108.687ZM52.2841 110.683C52.8362 110.666 53.2696 110.204 53.2523 109.652C53.2349 109.1 52.7734 108.667 52.2214 108.684L52.2841 110.683ZM56.0004 108.443C55.4507 108.496 55.0482 108.985 55.1015 109.535C55.1547 110.085 55.6434 110.487 56.1931 110.434L56.0004 108.443ZM60.0823 109.923C60.627 109.832 60.9948 109.316 60.9038 108.772C60.8128 108.227 60.2974 107.859 59.7527 107.95L60.0823 109.923ZM63.4649 107.19C62.9283 107.321 62.5993 107.862 62.73 108.399C62.8608 108.935 63.4017 109.264 63.9383 109.134L63.4649 107.19ZM67.7192 108.057C68.244 107.885 68.53 107.32 68.3579 106.795C68.1858 106.27 67.6209 105.984 67.0961 106.156L67.7192 108.057ZM70.6294 104.835C70.1207 105.05 69.8825 105.636 70.0975 106.145C70.3125 106.654 70.8992 106.892 71.4079 106.677L70.6294 104.835ZM74.9726 104.983C75.4603 104.723 75.6454 104.118 75.3862 103.63C75.1269 103.143 74.5214 102.957 74.0338 103.217L74.9726 104.983ZM77.2656 101.298C76.8048 101.603 76.6781 102.223 76.9826 102.684C77.287 103.145 77.9074 103.272 78.3682 102.967L77.2656 101.298ZM81.5562 100.62C81.9833 100.27 82.0456 99.6396 81.6954 99.2125C81.3453 98.7854 80.7152 98.7231 80.2881 99.0732L81.5562 100.62ZM83.0493 96.5428C82.6639 96.9384 82.6722 97.5715 83.0678 97.9569C83.4634 98.3423 84.0965 98.334 84.4819 97.9384L83.0493 96.5428ZM87.0788 94.931C87.4132 94.4915 87.3281 93.8641 86.8886 93.5296C86.4491 93.1952 85.8217 93.2803 85.4872 93.7198L87.0788 94.931ZM87.5415 90.6174C87.2685 91.0975 87.4363 91.708 87.9164 91.9811C88.3964 92.2541 89.007 92.0863 89.28 91.6062L87.5415 90.6174ZM91.0033 87.9951C91.2037 87.4805 90.9489 86.9008 90.4343 86.7004C89.9197 86.5 89.34 86.7547 89.1396 87.2694L91.0033 87.9951ZM90.2085 83.7319C90.0914 84.2716 90.4341 84.8041 90.9738 84.9212C91.5135 85.0382 92.046 84.6956 92.163 84.1558L90.2085 83.7319ZM92.6863 80.1714C92.7119 79.6197 92.2854 79.1517 91.7338 79.1261C91.1821 79.1005 90.7141 79.527 90.6885 80.0787L92.6863 80.1714ZM90.5438 76.4017C90.6128 76.9496 91.1129 77.3379 91.6609 77.2689C92.2088 77.1999 92.5971 76.6998 92.5281 76.1518L90.5438 76.4017ZM91.6885 72.2188C91.5283 71.6902 90.9699 71.3917 90.4414 71.5519C89.9128 71.7122 89.6143 72.2705 89.7745 72.7991L91.6885 72.2188ZM88.4192 69.3592C88.6614 69.8556 89.2602 70.0615 89.7565 69.8192C90.2528 69.5769 90.4587 68.9782 90.2164 68.4819L88.4192 69.3592ZM88.2065 65.0344C87.8952 64.5783 87.273 64.4609 86.8168 64.7723C86.3607 65.0836 86.2433 65.7058 86.5547 66.162L88.2065 65.0344ZM84.2561 63.2286C84.6234 63.6411 85.2555 63.6777 85.668 63.3105C86.0805 62.9433 86.1171 62.3112 85.7499 61.8987L84.2561 63.2286ZM82.8595 59.0269C82.4434 58.6638 81.8117 58.7067 81.4485 59.1227C81.0854 59.5388 81.1282 60.1705 81.5443 60.5337L82.8595 59.0269ZM78.4628 58.21C78.927 58.5091 79.5459 58.3752 79.845 57.9109C80.1441 57.4467 80.0102 56.8278 79.546 56.5287L78.4628 58.21ZM75.8914 54.555C75.3864 54.3313 74.7957 54.5594 74.5721 55.0644C74.3485 55.5694 74.5766 56.1601 75.0816 56.3837L75.8914 54.555ZM71.4554 55.1125C71.9894 55.2531 72.5364 54.9342 72.6771 54.4001C72.8177 53.866 72.4987 53.319 71.9647 53.1784L71.4554 55.1125ZM67.8712 52.4382C67.3218 52.3823 66.831 52.7824 66.7752 53.3319C66.7193 53.8813 67.1194 54.3721 67.6689 54.4279L67.8712 52.4382ZM63.8148 54.3252C64.3665 54.2997 64.793 53.8317 64.7675 53.28C64.7419 52.7283 64.274 52.3018 63.7223 52.3273L63.8148 54.3252ZM59.6095 52.8048C59.0664 52.9053 58.7077 53.4271 58.8082 53.9701C58.9088 54.5132 59.4305 54.8719 59.9736 54.7714L59.6095 52.8048ZM56.2123 55.7198C56.7384 55.5517 57.0287 54.989 56.8606 54.4629C56.6925 53.9368 56.1298 53.6465 55.6037 53.8146L56.2123 55.7198ZM51.7573 55.2997C51.2544 55.5281 51.032 56.1209 51.2605 56.6238C51.4889 57.1266 52.0817 57.349 52.5845 57.1206L51.7573 55.2997ZM49.1343 58.9265C49.6088 58.6439 49.7644 58.0302 49.4819 57.5557C49.1993 57.0812 48.5855 56.9256 48.111 57.2081L49.1343 58.9265ZM44.6955 59.4986C44.2538 59.8301 44.1646 60.457 44.4961 60.8986C44.8277 61.3403 45.4545 61.4296 45.8962 61.098L44.6955 59.4986ZM42.9049 63.6011C43.3092 63.2247 43.3318 62.592 42.9555 62.1877C42.5792 61.7835 41.9464 61.7609 41.5422 62.1372L42.9049 63.6011ZM38.6857 65.0961C38.3241 65.5135 38.3693 66.145 38.7867 66.5067C39.2041 66.8683 39.8357 66.8231 40.1973 66.4057L38.6857 65.0961ZM37.8138 69.485C38.1268 69.03 38.0117 68.4074 37.5567 68.0944C37.1017 67.7813 36.479 67.8965 36.166 68.3515L37.8138 69.485ZM34.0311 71.8794C33.7739 72.3682 33.9615 72.9729 34.4502 73.2301C34.9389 73.4874 35.5436 73.2998 35.8009 72.8111L34.0311 71.8794ZM34.2124 76.3489C34.4059 75.8316 34.1433 75.2554 33.626 75.0619C33.1088 74.8685 32.5326 75.131 32.3391 75.6483L34.2124 76.3489ZM31.1535 79.6149C31.0323 80.1537 31.3707 80.6888 31.9095 80.8101C32.4483 80.9314 32.9834 80.5929 33.1047 80.0541L31.1535 79.6149ZM32.5311 83.8693C32.5729 83.3186 32.1602 82.8383 31.6095 82.7966C31.0588 82.7549 30.5786 83.1675 30.5368 83.7182L32.5311 83.8693ZM30.5079 87.8958C30.5335 88.4475 31.0015 88.874 31.5531 88.8484C32.1048 88.8228 32.5313 88.3549 32.5058 87.8032L30.5079 87.8958ZM32.8504 91.8251C32.7835 91.2769 32.2848 90.8867 31.7366 90.9536C31.1884 91.0205 30.7982 91.5192 30.8651 92.0674L32.8504 91.8251ZM31.5039 96.2122C31.6042 96.7553 32.1258 97.1143 32.6689 97.014C33.212 96.9137 33.5709 96.3921 33.4706 95.849L31.5039 96.2122ZM34.3149 99.8202C34.1861 99.2832 33.6464 98.9521 33.1093 99.0809C32.5723 99.2096 32.2412 99.7493 32.37 100.286L34.3149 99.8202ZM33.4418 104.324C33.5961 104.854 34.1511 105.159 34.6814 105.005C35.2117 104.85 35.5165 104.295 35.3622 103.765L33.4418 104.324ZM36.5885 107.65C36.4106 107.128 35.8425 106.848 35.3197 107.026C34.7968 107.204 34.5172 107.772 34.6951 108.295L36.5885 107.65ZM36.1211 112.205C36.3214 112.72 36.901 112.975 37.4157 112.775C37.9304 112.574 38.1852 111.995 37.9849 111.48L36.1211 112.205ZM39.5461 115.251C39.324 114.745 38.734 114.515 38.2284 114.737C37.7227 114.959 37.4929 115.549 37.715 116.055L39.5461 115.251ZM39.4725 119.835C39.7161 120.331 40.3153 120.535 40.811 120.291C41.3067 120.048 41.5111 119.449 41.2675 118.953L39.4725 119.835ZM43.1438 122.571C42.8789 122.087 42.2713 121.908 41.7867 122.173C41.3021 122.438 41.124 123.046 41.3889 123.53L43.1438 122.571ZM43.4679 127.14C43.7542 127.612 44.3692 127.763 44.8414 127.477C45.3137 127.19 45.4644 126.575 45.178 126.103L43.4679 127.14ZM47.3711 129.538C47.063 129.079 46.4417 128.957 45.9833 129.265C45.525 129.574 45.4032 130.195 45.7113 130.653L47.3711 129.538ZM48.1214 134.057C48.4516 134.5 49.0781 134.591 49.5209 134.261C49.9636 133.931 50.0549 133.305 49.7247 132.862L48.1214 134.057ZM52.2406 136.062C51.888 135.636 51.2576 135.578 50.8325 135.93C50.4074 136.283 50.3485 136.913 50.7011 137.338L52.2406 136.062ZM53.4529 140.479C53.8281 140.885 54.4608 140.909 54.866 140.534C55.2713 140.158 55.2955 139.526 54.9203 139.12L53.4529 140.479ZM57.7653 142.021C57.3672 141.638 56.7341 141.651 56.3514 142.049C55.9686 142.447 55.9811 143.08 56.3792 143.463L57.7653 142.021ZM59.4813 146.268C59.9023 146.625 60.5333 146.574 60.8908 146.153C61.2483 145.732 61.1969 145.101 60.7759 144.743L59.4813 146.268ZM63.9503 147.267C63.5069 146.938 62.8805 147.03 62.5513 147.474C62.222 147.917 62.3146 148.544 62.758 148.873L63.9503 147.267ZM66.2054 151.254C66.6705 151.552 67.2889 151.416 67.5868 150.951C67.8847 150.486 67.7491 149.868 67.284 149.57L66.2054 151.254ZM70.7698 151.63C70.2844 151.366 69.6774 151.546 69.4139 152.031C69.1505 152.517 69.3304 153.124 69.8158 153.387L70.7698 151.63ZM73.5767 155.25C74.0806 155.476 74.6724 155.251 74.8986 154.747C75.1248 154.243 74.8997 153.651 74.3958 153.425L73.5767 155.25ZM78.1432 154.937C77.6234 154.75 77.0508 155.02 76.8641 155.54C76.6775 156.06 76.9476 156.633 77.4674 156.819L78.1432 154.937ZM81.4692 158.082C82.002 158.227 82.5518 157.913 82.6972 157.38C82.8425 156.847 82.5285 156.298 81.9956 156.152L81.4692 158.082ZM85.9316 157.062C85.389 156.959 84.8655 157.315 84.7622 157.857C84.6589 158.4 85.015 158.924 85.5575 159.027L85.9316 157.062ZM89.706 159.652C90.2548 159.713 90.7495 159.318 90.8107 158.769C90.872 158.22 90.4767 157.725 89.9278 157.664L89.706 159.652ZM93.9607 157.961C93.4088 157.941 92.9451 158.372 92.9249 158.924C92.9048 159.476 93.3359 159.94 93.8878 159.96L93.9607 157.961ZM50.2543 1.46627e-05C49.6039 0.0382481 48.9296 0.0929591 48.234 0.165049L48.4402 2.15439C49.1072 2.08526 49.7519 2.033 50.3717 1.99657L50.2543 1.46627e-05ZM44.2196 0.741116C42.9418 0.973331 41.618 1.25912 40.2615 1.60301L40.753 3.54168C42.065 3.20906 43.3442 2.93297 44.5772 2.70889L44.2196 0.741116ZM36.3728 2.72664C35.1172 3.13454 33.845 3.59234 32.5657 4.10334L33.3076 5.96065C34.5449 5.46642 35.7757 5.0235 36.9907 4.62878L36.3728 2.72664ZM28.8559 5.73192C27.6557 6.30831 26.457 6.93411 25.2678 7.61208L26.2583 9.34957C27.4053 8.6957 28.5622 8.09161 29.7217 7.53481L28.8559 5.73192ZM21.8227 9.74695C20.7118 10.494 19.6164 11.2911 18.5434 12.1407L19.785 13.7087C20.8159 12.8924 21.8694 12.1257 22.9388 11.4066L21.8227 9.74695ZM15.4638 14.7884C14.4846 15.7026 13.5322 16.667 12.6127 17.6837L14.0961 19.0253C14.9767 18.0514 15.8895 17.1271 16.8286 16.2503L15.4638 14.7884ZM10.016 20.8175C9.20908 21.8824 8.43737 22.9962 7.70609 24.1606L9.39976 25.2243C10.0995 24.1102 10.8379 23.0445 11.6101 22.0253L10.016 20.8175ZM5.69397 27.6989C5.08703 28.8833 4.5202 30.1132 3.99766 31.3899L5.84864 32.1475C6.34964 30.9233 6.89276 29.745 7.47388 28.6109L5.69397 27.6989ZM2.61615 35.2065C2.21528 36.472 1.85587 37.7784 1.54118 39.1266L3.48883 39.5812C3.7919 38.2828 4.13766 37.0262 4.52278 35.8105L2.61615 35.2065ZM0.765272 43.1019C0.559226 44.4027 0.392819 45.7389 0.268465 47.1113L2.2603 47.2918C2.38071 45.9629 2.54168 44.6709 2.74064 43.4148L0.765272 43.1019ZM0.0293412 51.143C0.00986099 51.8146 0 52.4941 0 53.1818H2C2 52.5133 2.00959 51.853 2.0285 51.201L0.0293412 51.143ZM0 53.1818C0 53.835 0.00661016 54.4864 0.0198905 55.1356L2.01947 55.0947C2.00647 54.4592 2 53.8215 2 53.1818H0ZM0.18195 59.0337C0.264636 60.3431 0.375762 61.6421 0.515853 62.9287L2.5041 62.7122C2.36737 61.4564 2.2588 60.1876 2.17797 58.9076L0.18195 59.0337ZM1.03179 66.8023C1.23728 68.1009 1.47413 69.3846 1.74292 70.6514L3.69937 70.2362C3.438 69.0044 3.20743 67.7549 3.00722 66.4897L1.03179 66.8023ZM2.662 74.4589C3.00746 75.7302 3.38771 76.9815 3.80342 78.2104L5.69796 77.5695C5.29566 76.3802 4.92717 75.1679 4.59201 73.9345L2.662 74.4589ZM5.18217 81.8873C5.68659 83.1069 6.22958 84.3004 6.81189 85.4652L8.6008 84.5708C8.04045 83.45 7.51714 82.2999 7.03034 81.1229L5.18217 81.8873ZM8.7051 88.9171C9.38467 90.0491 10.1064 91.1483 10.8709 92.2119L12.4949 91.0445C11.7633 90.0268 11.0719 88.9738 10.4199 87.8877L8.7051 88.9171ZM13.3117 95.3136C14.171 96.3116 15.0747 97.2703 16.0235 98.1871L17.4132 96.7489C16.5093 95.8754 15.6475 94.9611 14.8273 94.0085L13.3117 95.3136ZM18.9929 100.798C20.0159 101.616 21.0829 102.389 22.1945 103.117L23.2895 101.443C22.231 100.75 21.2152 100.014 20.2413 99.2359L18.9929 100.798ZM25.6008 105.124C26.75 105.73 27.9402 106.292 29.1721 106.807L29.9431 104.962C28.7662 104.47 27.6304 103.934 26.5348 103.355L25.6008 105.124ZM32.877 108.17C34.1045 108.564 35.3683 108.914 36.669 109.219L37.126 107.272C35.8761 106.979 34.6634 106.642 33.4876 106.266L32.877 108.17ZM40.5352 109.976C41.8022 110.176 43.1008 110.337 44.4314 110.456L44.6105 108.464C43.3235 108.349 42.0693 108.193 40.8477 108L40.5352 109.976ZM48.3401 110.686C48.9907 110.705 49.6483 110.714 50.313 110.714V108.714C49.6671 108.714 49.0286 108.705 48.3974 108.687L48.3401 110.686ZM50.313 110.714C50.9759 110.714 51.633 110.704 52.2841 110.683L52.2214 108.684C51.5912 108.704 50.9551 108.714 50.313 108.714V110.714ZM56.1931 110.434C57.5179 110.306 58.8147 110.135 60.0823 109.923L59.7527 107.95C58.5311 108.154 57.2799 108.319 56.0004 108.443L56.1931 110.434ZM63.9383 109.134C65.2347 108.818 66.4956 108.458 67.7192 108.057L67.0961 106.156C65.9225 106.541 64.7115 106.887 63.4649 107.19L63.9383 109.134ZM71.4079 106.677C72.6422 106.155 73.8312 105.589 74.9726 104.983L74.0338 103.217C72.9455 103.795 71.8101 104.336 70.6294 104.835L71.4079 106.677ZM78.3682 102.967C79.4896 102.226 80.5532 101.442 81.5562 100.62L80.2881 99.0732C79.3393 99.8512 78.331 100.595 77.2656 101.298L78.3682 102.967ZM84.4819 97.9384C85.4222 96.973 86.2891 95.9687 87.0788 94.931L85.4872 93.7198C84.748 94.6911 83.9345 95.6341 83.0493 96.5428L84.4819 97.9384ZM89.28 91.6062C89.9483 90.4312 90.5243 89.2251 91.0033 87.9951L89.1396 87.2694C88.697 88.4061 88.1632 89.5244 87.5415 90.6174L89.28 91.6062ZM92.163 84.1558C92.4481 82.8417 92.6241 81.5108 92.6863 80.1714L90.6885 80.0787C90.6316 81.3044 90.4704 82.5246 90.2085 83.7319L92.163 84.1558ZM92.5281 76.1518C92.3625 74.8365 92.0839 73.5228 91.6885 72.2188L89.7745 72.7991C90.1373 73.9956 90.3923 75.1987 90.5438 76.4017L92.5281 76.1518ZM90.2164 68.4819C89.647 67.3153 88.9778 66.1643 88.2065 65.0344L86.5547 66.162C87.273 67.2142 87.8932 68.2818 88.4192 69.3592L90.2164 68.4819ZM85.7499 61.8987C85.3141 61.4091 84.857 60.9251 84.3787 60.4469L82.9649 61.8616C83.4163 62.3127 83.8466 62.7686 84.2561 63.2286L85.7499 61.8987ZM84.3787 60.4469C83.8807 59.9493 83.3741 59.4761 82.8595 59.0269L81.5443 60.5337C82.0246 60.9529 82.4983 61.3953 82.9649 61.8616L84.3787 60.4469ZM79.546 56.5287C78.3553 55.7616 77.1346 55.1055 75.8914 54.555L75.0816 56.3837C76.2297 56.8921 77.359 57.4989 78.4628 58.21L79.546 56.5287ZM71.9647 53.1784C70.6117 52.8221 69.2442 52.5778 67.8712 52.4382L67.6689 54.4279C68.941 54.5573 70.2058 54.7834 71.4554 55.1125L71.9647 53.1784ZM63.7223 52.3273C62.3444 52.3912 60.9705 52.5528 59.6095 52.8048L59.9736 54.7714C61.2483 54.5354 62.5314 54.3846 63.8148 54.3252L63.7223 52.3273ZM55.6037 53.8146C54.2986 54.2316 53.0137 54.7289 51.7573 55.2997L52.5845 57.1206C53.7719 56.5812 54.9838 56.1122 56.2123 55.7198L55.6037 53.8146ZM48.111 57.2081C46.935 57.9084 45.7939 58.674 44.6955 59.4986L45.8962 61.098C46.9382 60.3158 48.0201 59.59 49.1343 58.9265L48.111 57.2081ZM41.5422 62.1372C40.5375 63.0725 39.5827 64.0608 38.6857 65.0961L40.1973 66.4057C41.0469 65.4251 41.9519 64.4882 42.9049 63.6011L41.5422 62.1372ZM36.166 68.3515C35.3846 69.4874 34.6702 70.6655 34.0311 71.8794L35.8009 72.8111C36.4022 71.6688 37.0757 70.558 37.8138 69.485L36.166 68.3515ZM32.3391 75.6483C31.8552 76.9423 31.457 78.2668 31.1535 79.6149L33.1047 80.0541C33.3875 78.7979 33.7592 77.5607 34.2124 76.3489L32.3391 75.6483ZM30.5368 83.7182C30.4847 84.4072 30.458 85.1002 30.458 85.7965H32.458C32.458 85.1513 32.4827 84.5086 32.5311 83.8693L30.5368 83.7182ZM30.458 85.7965C30.458 86.478 30.4747 87.1783 30.5079 87.8958L32.5058 87.8032C32.4739 87.1149 32.458 86.4454 32.458 85.7965H30.458ZM30.8651 92.0674C31.0287 93.4081 31.2417 94.7925 31.5039 96.2122L33.4706 95.849C33.2155 94.4672 33.0088 93.1232 32.8504 91.8251L30.8651 92.0674ZM32.37 100.286C32.6876 101.611 33.0448 102.959 33.4418 104.324L35.3622 103.765C34.974 102.431 34.6249 101.114 34.3149 99.8202L32.37 100.286ZM34.6951 108.295C35.1358 109.59 35.6111 110.895 36.1211 112.205L37.9849 111.48C37.4854 110.197 37.0199 108.918 36.5885 107.65L34.6951 108.295ZM37.715 116.055C38.2688 117.316 38.8546 118.577 39.4725 119.835L41.2675 118.953C40.6624 117.721 40.0886 116.486 39.5461 115.251L37.715 116.055ZM41.3889 123.53C42.0513 124.742 42.7443 125.947 43.4679 127.14L45.178 126.103C44.4703 124.936 43.7922 123.757 43.1438 122.571L41.3889 123.53ZM45.7113 130.653C46.4847 131.804 47.288 132.94 48.1214 134.057L49.7247 132.862C48.9114 131.771 48.1268 130.662 47.3711 129.538L45.7113 130.653ZM50.7011 137.338C51.5885 138.408 52.5057 139.457 53.4529 140.479L54.9203 139.12C53.9986 138.125 53.1054 137.104 52.2406 136.062L50.7011 137.338ZM56.3792 143.463C57.3832 144.428 58.4172 145.364 59.4813 146.268L60.7759 144.743C59.7442 143.867 58.7406 142.959 57.7653 142.021L56.3792 143.463ZM62.758 148.873C63.8772 149.704 65.0263 150.499 66.2054 151.254L67.284 149.57C66.1448 148.84 65.0335 148.071 63.9503 147.267L62.758 148.873ZM69.8158 153.387C71.0402 154.052 72.2938 154.674 73.5767 155.25L74.3958 153.425C73.1596 152.87 71.951 152.271 70.7698 151.63L69.8158 153.387ZM77.4674 156.819C78.7736 157.288 80.1075 157.71 81.4692 158.082L81.9956 156.152C80.685 155.795 79.4009 155.388 78.1432 154.937L77.4674 156.819ZM85.5575 159.027C86.9151 159.285 88.2979 159.495 89.706 159.652L89.9278 157.664C88.5708 157.513 87.2388 157.311 85.9316 157.062L85.5575 159.027Z" fill="#000009"/>
</svg>
