<svg width="156" height="238" viewBox="0 0 156 238" fill="none" xmlns="http://www.w3.org/2000/svg">
<path d="M73.5724 44C48.3724 44 25.0724 52 16.5724 56C16.0724 69.1667 15.8724 103.2 19.0724 134C38.5724 142.5 57.0724 146 77.0724 146C97.0724 146 116.072 142.5 135.572 134C141.172 101.2 139.572 68.3333 138.072 56C127.072 52 98.7724 44 73.5724 44Z" fill="#A890F0"/>
<path d="M78.1035 235.5C94.1736 235.5 109.44 232.686 125.109 225.853C123.502 196.935 112.203 168.166 106.755 157.396C97.1485 155.259 85.8793 153.5 75.2912 153.5C64.703 153.5 54.5324 155.259 46.2612 157.396C42.0104 167.666 33.107 195.735 31.5 225.853C47.1684 232.686 62.0333 235.5 78.1035 235.5Z" fill="#A890F0"/>
<path d="M107.5 214.382C97.7918 218.716 88.3326 220.5 78.3755 220.5C68.4185 220.5 59.2082 218.716 49.5 214.382C49.702 210.507 50.0902 206.685 50.6027 203C52.6158 188.524 56.5467 176.162 58.646 170.971C63.7709 169.615 70.0726 168.5 76.633 168.5C83.1935 168.5 90.1759 169.615 96.1281 170.971C97.7155 174.182 100.104 179.918 102.293 187C104.76 194.979 106.973 204.667 107.5 214.382Z" fill="#E5F066"/>
<path d="M78.3756 220.5C88.3327 220.5 97.7919 218.716 107.5 214.382C107.869 218.288 107.654 223.422 107.5 225.5C104 227.167 93.2751 230.5 78.3756 230.5C63.476 230.5 52.9171 227.167 49.5 225.5C49.1667 223.167 48.5 218.1 48.5 216.5C47.7 202.1 54.1667 181.167 57.5 172.5L58.6461 170.971C55.9307 177.902 50.3 196.288 49.5 214.382C59.2082 218.716 68.4185 220.5 78.3756 220.5Z" fill="#8972CC"/>
<path d="M70.9999 203H50.6025L50.5 205.5L51.5 204.5H71.5L87.5 188.5H102.5L102.293 187H86.9999L70.9999 203Z" fill="#FAFFBC"/>
<path d="M60 172.5L58.5 171C63 169.5 70 168.5 78 168.5C84.4 168.5 92.6667 170.167 96 171C95.8333 171.333 95.4 172.1 95 172.5C77.4 168.5 64.3333 170.833 60 172.5Z" fill="#FAFFBC"/>
<path d="M70.9999 203H50.6025L53.5 200.5H70L86 184.5H101.5L102.293 187H86.9999L70.9999 203Z" fill="#C7D14E"/>
<path d="M50 211.5L49.5 214.5C54.1667 216.5 66.2 220.5 77 220.5C92.2 220.5 103.667 216.5 107.5 214.5L107 211C102.5 213 90.2 217 77 217C63.8 217 53.5 213.333 50 211.5Z" fill="#C7D14E"/>
<path d="M16.3204 67.5C10.7483 69.5 4.78511 73.3333 2.5 75C2.51761 86.8612 2.85007 101.793 3.85707 117C6.66917 118.5 13.4426 121.7 18.0394 122.5C16.4593 102.01 16.1781 81.4084 16.3204 67.5Z" fill="#E5F066"/>
<path d="M152.566 75C147.991 71.4 141.639 68.5 139.035 67.5C139.793 81.0062 139.879 101.252 137.258 122.5C139.804 121.833 146.135 119.8 151.091 117C152.699 101.393 152.914 86.6109 152.566 75Z" fill="#E5F066"/>
<path d="M18.0391 122.5C13.4423 121.7 6.66893 118.5 3.85683 117C3.67934 114.32 3.5228 111.648 3.38525 109C5.91406 110.333 12.2745 113.3 17.4857 114.5C17.6494 117.159 17.8333 119.83 18.0391 122.5Z" fill="#C7D14E"/>
<path d="M151.091 117C146.135 119.8 139.804 121.833 137.258 122.5C137.589 119.813 137.877 117.143 138.126 114.5C140.62 114 146.847 112.2 151.804 109C151.605 111.634 151.369 114.305 151.091 117Z" fill="#C7D14E"/>
<path d="M16 68C11.2 70 5 73.8333 2.5 75.5V92C5.7 89.2 12.8333 85.1667 16 83.5V68Z" fill="#FAFFBC"/>
<path d="M152.5 75.5C148.5 72.7 142.167 69.3333 139.5 68V83C144.7 85.4 150.333 90 152.5 92V75.5Z" fill="#FAFFBC"/>
<path d="M77.0667 146C97.0667 146 116.067 142.5 135.567 134C138.09 119.218 139.152 104.423 139.419 91.5L125.567 96L123.067 120.5C120.521 121.942 115.074 124.119 107.067 125.908V104.664C101.336 105.944 94.294 107.027 86.0667 107.5V128.745C83.2081 128.909 80.2063 129 77.0667 129C73.9271 129 70.9253 128.909 68.0667 128.745V107.5C59.8394 107.027 52.7975 105.944 47.0667 104.664V125.908C39.0596 124.119 33.612 121.942 31.0668 120.5L29.5668 96L16.5 91.5C16.8312 104.762 17.5839 119.728 19.0667 134C38.5667 142.5 57.0667 146 77.0667 146Z" fill="#E5F066"/>
<path d="M77.0669 146C97.0669 146 116.067 142.5 135.567 134L136 129.5C116.5 138 97.0669 142 77.0669 142C57.0669 142 38.5 138 19 129.5L19.0669 134C38.5669 142.5 57.0669 146 77.0669 146Z" fill="#C7D14E"/>
<path d="M29.5668 96L16.5 91.5C16.8333 84.5 18 68.2 20 59C27.2 55.8 35.3333 53.6667 38.5 53C35.5223 58.1667 29.5 75.1 29.5 93.5C31.1 93.9 31.8333 94.3333 32 94.5L33 119.5C35.8778 120.5 42.72 122.7 47.0667 123.5V104.664L47.5 102C52.5 102.888 63.7 104.664 68.5 104.664V125.908C71.3333 126.211 78.6 126.635 85 125.908C85 120.782 84.6667 109.609 84.5 104.664C88.5 104.609 97.9 104.1 103.5 102.5C105.1 103.3 106.545 104.276 107.067 104.664V122.5C109.711 122 116.2 120.5 121 118.5C121.8 111.7 123 99.6667 123.5 94.5C126.446 93.5 133.754 90.9 139.419 88.5V91.5L125.567 96L123.067 120.5C120.521 121.942 115.074 124.119 107.067 125.908V122.5V104.664C101.336 105.944 94.294 107.027 86.0667 107.5V128.745C83.2081 128.909 80.2063 129 77.0667 129C73.9271 129 70.9253 128.909 68.0667 128.745V107.5C59.8394 107.027 52.7975 105.944 47.0667 104.664V123.5V125.908C39.0596 124.119 33.612 121.942 31.0668 120.5L29.5668 96Z" fill="#8972CC"/>
<circle cx="54.0723" cy="76.5" r="14" fill="#E5F066"/>
<circle cx="89.0723" cy="10.5" r="8" fill="#E5F066"/>
<path d="M89.0723 2.5C84.654 2.5 81.0723 6.08172 81.0723 10.5C81.0723 10.8387 81.0933 11.1724 81.1342 11.5C81.6263 7.55369 84.9926 4.5 89.0723 4.5C93.1519 4.5 96.5183 7.55369 97.0104 11.5C97.0512 11.1724 97.0723 10.8387 97.0723 10.5C97.0723 6.08172 93.4905 2.5 89.0723 2.5Z" fill="#FAFFBC"/>
<path d="M89.0723 18.5C93.4905 18.5 97.0723 14.9183 97.0723 10.5C97.0723 10.1613 97.0512 9.82759 97.0104 9.5C96.5183 13.4463 93.1519 16.5 89.0723 16.5C84.9926 16.5 81.6263 13.4463 81.1342 9.5C81.0933 9.82759 81.0723 10.1613 81.0723 10.5C81.0723 14.9183 84.654 18.5 89.0723 18.5Z" fill="#C7D14E"/>
<ellipse cx="99.0723" cy="82" rx="14" ry="9.5" fill="#E5F066"/>
<path d="M16.5 97.5V92L29.5 96L30.8171 119L31 120.5C35.4 122.9 43.5 125.167 47 126V109.5V104.5C53.8 106.1 63.8333 107.167 68 107.5V111.5V128.5C74 129.7 82.5 129 86 128.5V111.5V107.5C92.8 107.5 102.833 105.5 107 104.5V108.5V126C114.2 125.2 120.667 122 123 120.5L125.5 96L139.5 91.5V96.5C136.7 97.7 130 99.3333 127 100C126.333 105.5 125 117.8 125 123C120.2 125.8 111 128.5 107 129.5V126V108.5C98.2 110.1 89.3333 111.167 86 111.5V128.5V131C78.8 131.8 71 131.333 68 131V128.5V111.5C60.4 111.5 50.8333 110.167 47 109.5V126L46.5 128.5L31 124.5V120.5L30.8171 119L28.5 100L16.5 97.5Z" fill="#FAFFBC"/>
<path d="M132.5 60C92.5 44 53.1667 48.6667 38.5 53C116.5 44.2 127.667 71.6667 123.5 86.5L135 82C135 78.6667 134.5 69.6 132.5 60Z" fill="#C7B5FF"/>
<path d="M16.5724 56L15.508 53.738C14.6627 54.1357 14.1097 54.9716 14.0742 55.9051L16.5724 56ZM138.072 56L140.554 55.6982C140.441 54.7637 139.812 53.9722 138.927 53.6505L138.072 56ZM135.572 134L136.571 136.292C137.344 135.955 137.895 135.252 138.037 134.421L135.572 134ZM19.0724 134L16.5858 134.258C16.679 135.155 17.2473 135.932 18.0735 136.292L19.0724 134ZM125.109 225.853L126.108 228.144C127.066 227.727 127.663 226.757 127.605 225.714L125.109 225.853ZM31.5 225.853L29.0036 225.72C28.948 226.761 29.5447 227.728 30.5006 228.144L31.5 225.853ZM46.2612 157.396L45.6356 154.976C44.8753 155.172 44.2515 155.715 43.9512 156.44L46.2612 157.396ZM106.755 157.396L108.986 156.268C108.648 155.6 108.029 155.119 107.298 154.956L106.755 157.396ZM107.5 214.382L108.519 216.665C109.465 216.243 110.052 215.281 109.996 214.247L107.5 214.382ZM49.5 214.382L47.0034 214.252C46.9496 215.285 47.5369 216.244 48.481 216.665L49.5 214.382ZM58.646 170.971L58.0067 168.554C57.2455 168.755 56.6236 169.304 56.3284 170.034L58.646 170.971ZM96.1281 170.971L98.3693 169.863C98.036 169.189 97.4168 168.7 96.6833 168.533L96.1281 170.971ZM71 203V205.5C71.663 205.5 72.2989 205.237 72.7678 204.768L71 203ZM87 187V184.5C86.337 184.5 85.7011 184.763 85.2322 185.232L87 187ZM102.293 187L104.682 186.262L102.293 187ZM2.5 75L1.02682 72.9802C0.380512 73.4516 -0.00118446 74.2038 2.86102e-06 75.0037L2.5 75ZM16.3204 67.5L18.8202 67.5256C18.8286 66.7074 18.4361 65.9369 17.7693 65.4627C17.1025 64.9885 16.2459 64.8706 15.4758 65.147L16.3204 67.5ZM3.85707 117L1.36253 117.165C1.41963 118.027 1.91799 118.799 2.68047 119.206L3.85707 117ZM18.0394 122.5L17.6107 124.963C18.371 125.095 19.1498 124.869 19.7209 124.35C20.292 123.831 20.5913 123.077 20.532 122.308L18.0394 122.5ZM139.035 67.5L139.932 65.1662C139.14 64.8621 138.248 64.9802 137.562 65.4801C136.877 65.9799 136.492 66.7932 136.539 67.6401L139.035 67.5ZM152.566 75L155.065 74.9252C155.043 74.1852 154.694 73.493 154.112 73.0352L152.566 75ZM137.258 122.5L134.777 122.194C134.675 123.017 134.988 123.836 135.612 124.382C136.236 124.927 137.089 125.128 137.891 124.918L137.258 122.5ZM151.091 117L152.321 119.177C153.026 118.778 153.495 118.062 153.578 117.256L151.091 117ZM135.567 134L136.566 136.292C137.338 135.955 137.889 135.252 138.031 134.421L135.567 134ZM19.0667 134L16.5801 134.258C16.6732 135.155 17.2416 135.932 18.0677 136.292L19.0667 134ZM16.5 91.5L17.314 89.1362C16.5397 88.8696 15.6838 88.9991 15.023 89.483C14.3622 89.9668 13.9803 90.7437 14.0008 91.5624L16.5 91.5ZM29.5668 96L32.0621 95.8472C32.0003 94.8381 31.3368 93.9655 30.3808 93.6362L29.5668 96ZM31.0668 120.5L28.5714 120.653C28.6231 121.497 29.0983 122.258 29.8342 122.675L31.0668 120.5ZM123.067 120.5L124.299 122.675C125.004 122.276 125.472 121.56 125.554 120.754L123.067 120.5ZM125.567 96L124.794 93.6223C123.853 93.9282 123.18 94.7612 123.08 95.7462L125.567 96ZM139.419 91.5L141.919 91.5517C141.935 90.7425 141.559 89.9753 140.909 89.4928C140.26 89.0103 139.416 88.8723 138.647 89.1223L139.419 91.5ZM47.0667 125.908L46.5214 128.348C47.2619 128.514 48.0376 128.334 48.6298 127.859C49.222 127.385 49.5667 126.667 49.5667 125.908H47.0667ZM68.0667 128.745H65.5667C65.5667 130.07 66.6003 131.165 67.9231 131.241L68.0667 128.745ZM86.0667 128.745L86.2103 131.241C87.533 131.165 88.5667 130.07 88.5667 128.745H86.0667ZM107.067 125.908H104.567C104.567 126.667 104.911 127.385 105.504 127.859C106.096 128.334 106.872 128.514 107.612 128.348L107.067 125.908ZM47.0667 104.664L47.6119 102.224C46.8714 102.058 46.0957 102.238 45.5035 102.713C44.9113 103.187 44.5667 103.905 44.5667 104.664H47.0667ZM68.0667 107.5H70.5667C70.5667 106.175 69.533 105.08 68.2102 105.004L68.0667 107.5ZM86.0667 107.5L85.9232 105.004C84.6004 105.08 83.5667 106.175 83.5667 107.5H86.0667ZM107.067 104.664H109.567C109.567 103.905 109.222 103.187 108.63 102.713C108.038 102.238 107.262 102.058 106.522 102.224L107.067 104.664ZM70.0723 22.5986L68.9417 20.3688C68.0382 20.8269 67.5005 21.785 67.58 22.7948C67.6595 23.8047 68.3405 24.6667 69.3046 24.9778L70.0723 22.5986ZM92.0723 29.6972L93.8275 31.4774C94.4498 30.8639 94.7065 29.97 94.5047 29.1197C94.3028 28.2695 93.6716 27.5863 92.84 27.318L92.0723 29.6972ZM67.4542 57.9776C68.6892 58.5951 70.1909 58.0945 70.8083 56.8596C71.4258 55.6246 70.9252 54.1229 69.6903 53.5054L68.5723 55.7415L67.4542 57.9776ZM40.0412 49.7986C38.692 50.0919 37.836 51.4234 38.1293 52.7726C38.4226 54.1218 39.7541 54.9778 41.1033 54.6845L40.5723 52.2415L40.0412 49.7986ZM86.0723 61.7415C84.9677 60.9131 83.4007 61.1369 82.5723 62.2415C81.7438 63.3461 81.9677 64.9131 83.0723 65.7415L84.5723 63.7415L86.0723 61.7415ZM86.5723 65.2415L85.0723 67.2415C85.8987 67.8613 87.0212 67.909 87.8973 67.3615L86.5723 65.2415ZM110.983 58.2075C112.345 57.9805 113.265 56.6924 113.038 55.3305C112.811 53.9686 111.523 53.0485 110.161 53.2755L110.572 55.7415L110.983 58.2075ZM72 146C72 144.619 70.8807 143.5 69.5 143.5C68.1193 143.5 67 144.619 67 146H69.5H72ZM67 153.5C67 154.881 68.1193 156 69.5 156C70.8807 156 72 154.881 72 153.5H69.5H67ZM84.5 153.5C84.5 154.881 85.6193 156 87 156C88.3807 156 89.5 154.881 89.5 153.5H87H84.5ZM89.5 146C89.5 144.619 88.3807 143.5 87 143.5C85.6193 143.5 84.5 144.619 84.5 146H87H89.5ZM16.5724 56L17.6369 58.262C25.8827 54.3817 48.8186 46.5 73.5724 46.5V44V41.5C47.9263 41.5 24.2622 49.6183 15.508 53.738L16.5724 56ZM73.5724 44V46.5C98.3667 46.5 126.358 54.4005 137.218 58.3495L138.072 56L138.927 53.6505C127.786 49.5995 99.1782 41.5 73.5724 41.5V44ZM138.072 56L135.591 56.3018C137.068 68.4509 138.659 101.068 133.108 133.579L135.572 134L138.037 134.421C143.686 101.332 142.077 68.2158 140.554 55.6982L138.072 56ZM135.572 134L134.573 131.708C115.414 140.06 96.7569 143.5 77.0724 143.5V146V148.5C97.388 148.5 116.731 144.94 136.571 136.292L135.572 134ZM77.0724 146V143.5C57.3968 143.5 39.239 140.063 20.0714 131.708L19.0724 134L18.0735 136.292C37.9059 144.937 56.7481 148.5 77.0724 148.5V146ZM19.0724 134L21.5591 133.742C18.3751 103.096 18.5734 69.1881 19.0706 56.0949L16.5724 56L14.0742 55.9051C13.5715 69.1452 13.3698 103.304 16.5858 134.258L19.0724 134ZM125.109 225.853L124.109 223.561C108.781 230.246 93.8579 233 78.1035 233V235.5V238C94.4893 238 110.1 235.126 126.108 228.144L125.109 225.853ZM78.1035 235.5V233C62.3578 233 47.8353 230.25 32.4994 223.561L31.5 225.853L30.5006 228.144C46.5016 235.123 61.7088 238 78.1035 238V235.5ZM46.2612 157.396L46.8868 159.817C55.0119 157.717 64.9668 156 75.2912 156V153.5V151C64.4393 151 54.0528 152.8 45.6356 154.976L46.2612 157.396ZM75.2912 153.5V156C85.6301 156 96.7042 157.721 106.212 159.837L106.755 157.396L107.298 154.956C97.5928 152.796 86.1286 151 75.2912 151V153.5ZM106.755 157.396L104.524 158.525C109.873 169.099 121.031 197.525 122.613 225.992L125.109 225.853L127.605 225.714C125.973 196.345 114.533 167.234 108.986 156.268L106.755 157.396ZM46.2612 157.396L43.9512 156.44C39.6159 166.914 30.6287 195.263 29.0036 225.72L31.5 225.853L33.9964 225.986C35.5854 196.208 44.4048 168.418 48.5711 158.352L46.2612 157.396ZM107.5 214.382L106.481 212.099C97.1176 216.279 88.0089 218 78.3755 218V220.5V223C88.6563 223 98.466 221.152 108.519 216.665L107.5 214.382ZM78.3755 220.5V218C68.7512 218 59.8901 216.282 50.519 212.099L49.5 214.382L48.481 216.665C58.5262 221.149 68.0857 223 78.3755 223V220.5ZM58.646 170.971L59.2854 173.388C64.2615 172.071 70.3427 171 76.633 171V168.5V166C69.8026 166 63.2803 167.159 58.0067 168.554L58.646 170.971ZM76.633 168.5V171C82.9383 171 89.7213 172.076 95.573 173.408L96.1281 170.971L96.6833 168.533C90.6304 167.155 83.4486 166 76.633 166V168.5ZM58.646 170.971L56.3284 170.034C54.1549 175.408 50.1689 187.969 48.1265 202.656L50.6027 203L53.0789 203.344C55.0626 189.08 58.9385 176.916 60.9637 171.908L58.646 170.971ZM50.6027 203L48.1265 202.656C47.6054 206.403 47.2096 210.297 47.0034 214.252L49.5 214.382L51.9966 214.513C52.1945 210.717 52.575 206.967 53.0789 203.344L50.6027 203ZM50.6027 203V205.5H71V203V200.5H50.6027V203ZM71 203L72.7678 204.768L88.7678 188.768L87 187L85.2322 185.232L69.2322 201.232L71 203ZM96.1281 170.971L93.887 172.079C95.4084 175.157 97.7501 180.767 99.905 187.738L102.293 187L104.682 186.262C102.459 179.069 100.023 173.208 98.3693 169.863L96.1281 170.971ZM102.293 187L99.905 187.738C102.333 195.593 104.491 205.071 105.004 214.518L107.5 214.382L109.996 214.247C109.454 204.264 107.187 194.365 104.682 186.262L102.293 187ZM87 187V189.5H102.293V187V184.5H87V187ZM2.5 75L3.97318 77.0198C6.16527 75.421 11.9095 71.7394 17.1649 69.853L16.3204 67.5L15.4758 65.147C9.58723 67.2606 3.40496 71.2456 1.02682 72.9802L2.5 75ZM3.85707 117L6.3516 116.835C5.34902 101.695 5.01754 86.8183 5 74.9963L2.5 75L2.86102e-06 75.0037C0.0176661 86.9041 0.35112 101.892 1.36253 117.165L3.85707 117ZM18.0394 122.5L20.532 122.308C18.9591 101.912 18.6785 81.3862 18.8202 67.5256L16.3204 67.5L13.8205 67.4744C13.6778 81.4306 13.9595 102.109 15.5468 122.692L18.0394 122.5ZM3.85707 117L2.68047 119.206C5.50496 120.712 12.5857 124.088 17.6107 124.963L18.0394 122.5L18.468 120.037C14.2995 119.312 7.83338 116.288 5.03366 114.794L3.85707 117ZM139.035 67.5L138.139 69.8338C140.631 70.7908 146.723 73.5837 151.021 76.9648L152.566 75L154.112 73.0352C149.258 69.2163 142.647 66.2092 139.932 65.1662L139.035 67.5ZM139.035 67.5L136.539 67.6401C137.291 81.0359 137.375 101.128 134.777 122.194L137.258 122.5L139.739 122.806C142.382 101.377 142.296 80.9765 141.531 67.3599L139.035 67.5ZM152.566 75L150.068 75.0748C150.412 86.5984 150.199 101.267 148.604 116.744L151.091 117L153.578 117.256C155.2 101.518 155.415 86.6234 155.065 74.9252L152.566 75ZM137.258 122.5L137.891 124.918C140.546 124.223 147.105 122.123 152.321 119.177L151.091 117L149.861 114.823C145.165 117.477 139.062 119.443 136.625 120.082L137.258 122.5ZM135.567 134L134.568 131.708C115.408 140.06 96.7512 143.5 77.0667 143.5V146V148.5C97.3822 148.5 116.726 144.94 136.566 136.292L135.567 134ZM77.0667 146V143.5C57.3911 143.5 39.2332 140.063 20.0657 131.708L19.0667 134L18.0677 136.292C37.9002 144.937 56.7424 148.5 77.0667 148.5V146ZM19.0667 134L21.5533 133.742C20.0794 119.555 19.3293 104.658 18.9992 91.4376L16.5 91.5L14.0008 91.5624C14.333 104.867 15.0885 119.902 16.5801 134.258L19.0667 134ZM16.5 91.5L15.686 93.8638L28.7527 98.3638L29.5668 96L30.3808 93.6362L17.314 89.1362L16.5 91.5ZM29.5668 96L27.0714 96.1528L28.5714 120.653L31.0668 120.5L33.5621 120.347L32.0621 95.8472L29.5668 96ZM123.067 120.5L125.554 120.754L128.054 96.2538L125.567 96L123.08 95.7462L120.58 120.246L123.067 120.5ZM139.419 91.5L136.92 91.4483C136.654 104.281 135.6 118.948 133.102 133.579L135.567 134L138.031 134.421C140.58 119.488 141.649 104.566 141.919 91.5517L139.419 91.5ZM125.567 96L126.339 98.3777L140.191 93.8777L139.419 91.5L138.647 89.1223L124.794 93.6223L125.567 96ZM31.0668 120.5L29.8342 122.675C32.6681 124.281 38.3734 126.527 46.5214 128.348L47.0667 125.908L47.6119 123.469C39.7459 121.711 34.5559 119.604 32.2993 118.325L31.0668 120.5ZM68.0667 128.745L67.9231 131.241C70.8292 131.408 73.8789 131.5 77.0667 131.5V129V126.5C73.9753 126.5 71.0214 126.411 68.2102 126.249L68.0667 128.745ZM77.0667 129V131.5C80.2545 131.5 83.3041 131.408 86.2103 131.241L86.0667 128.745L85.9232 126.249C83.112 126.411 80.1581 126.5 77.0667 126.5V129ZM107.067 125.908L107.612 128.348C115.76 126.527 121.465 124.281 124.299 122.675L123.067 120.5L121.834 118.325C119.578 119.604 114.388 121.711 106.522 123.469L107.067 125.908ZM47.0667 104.664L46.5214 107.103C52.3837 108.414 59.56 109.515 67.9231 109.996L68.0667 107.5L68.2102 105.004C60.1188 104.539 53.2112 103.475 47.6119 102.224L47.0667 104.664ZM86.0667 107.5L86.2103 109.996C94.5734 109.515 101.75 108.414 107.612 107.103L107.067 104.664L106.522 102.224C100.922 103.475 94.0146 104.539 85.9232 105.004L86.0667 107.5ZM47.0667 104.664H44.5667V125.908H47.0667H49.5667V104.664H47.0667ZM68.0667 107.5H65.5667V128.745H68.0667H70.5667V107.5H68.0667ZM86.0667 107.5H83.5667V128.745H86.0667H88.5667V107.5H86.0667ZM107.067 104.664H104.567V125.908H107.067H109.567V104.664H107.067ZM68.0723 76.5H65.5723C65.5723 82.8513 60.4235 88 54.0723 88V90.5V93C63.185 93 70.5723 85.6127 70.5723 76.5H68.0723ZM54.0723 90.5V88C47.721 88 42.5723 82.8513 42.5723 76.5H40.0723H37.5723C37.5723 85.6127 44.9596 93 54.0723 93V90.5ZM40.0723 76.5H42.5723C42.5723 70.1487 47.721 65 54.0723 65V62.5V60C44.9596 60 37.5723 67.3873 37.5723 76.5H40.0723ZM54.0723 62.5V65C60.4235 65 65.5723 70.1487 65.5723 76.5H68.0723H70.5723C70.5723 67.3873 63.185 60 54.0723 60V62.5ZM97.0723 10.5H94.5723C94.5723 13.5376 92.1098 16 89.0723 16V18.5V21C94.8713 21 99.5723 16.299 99.5723 10.5H97.0723ZM89.0723 18.5V16C86.0347 16 83.5723 13.5376 83.5723 10.5H81.0723H78.5723C78.5723 16.299 83.2733 21 89.0723 21V18.5ZM81.0723 10.5H83.5723C83.5723 7.46243 86.0347 5 89.0723 5V2.5V0C83.2733 0 78.5723 4.70101 78.5723 10.5H81.0723ZM89.0723 2.5V5C92.1098 5 94.5723 7.46243 94.5723 10.5H97.0723H99.5723C99.5723 4.70101 94.8713 0 89.0723 0V2.5ZM84.0723 15.5L82.9417 13.2702L68.9417 20.3688L70.0723 22.5986L71.2028 24.8283L85.2028 17.7298L84.0723 15.5ZM70.0723 22.5986L69.3046 24.9778L91.3046 32.0764L92.0723 29.6972L92.84 27.318L70.84 20.2194L70.0723 22.5986ZM92.0723 29.6972L90.3171 27.9169L76.3171 41.7197L78.0723 43.5L79.8275 45.2803L93.8275 31.4774L92.0723 29.6972ZM113.072 82H110.572C110.572 83.548 109.649 85.2368 107.568 86.6488C105.501 88.0516 102.505 89 99.0723 89V91.5V94C103.372 94 107.376 92.8217 110.376 90.7862C113.362 88.7599 115.572 85.6987 115.572 82H113.072ZM99.0723 91.5V89C95.64 89 92.6438 88.0516 90.5765 86.6488C88.4956 85.2368 87.5723 83.548 87.5723 82H85.0723H82.5723C82.5723 85.6987 84.7829 88.7599 87.769 90.7862C90.7688 92.8217 94.7726 94 99.0723 94V91.5ZM85.0723 82H87.5723C87.5723 80.452 88.4956 78.7632 90.5765 77.3512C92.6438 75.9484 95.64 75 99.0723 75V72.5V70C94.7726 70 90.7688 71.1783 87.769 73.2138C84.7829 75.2401 82.5723 78.3013 82.5723 82H85.0723ZM99.0723 72.5V75C102.505 75 105.501 75.9484 107.568 77.3512C109.649 78.7632 110.572 80.452 110.572 82H113.072H115.572C115.572 78.3013 113.362 75.2401 110.376 73.2138C107.376 71.1783 103.372 70 99.0723 70V72.5ZM68.5723 55.7415L69.6903 53.5054C67.9327 52.6266 63.5767 51.0668 58.233 50.0367C52.8753 49.0039 46.2517 48.4484 40.0412 49.7986L40.5723 52.2415L41.1033 54.6845C46.3928 53.5346 52.2692 53.9791 57.2865 54.9463C62.3179 55.9162 66.2118 57.3564 67.4542 57.9776L68.5723 55.7415ZM84.5723 63.7415L83.0723 65.7415L85.0723 67.2415L86.5723 65.2415L88.0723 63.2415L86.0723 61.7415L84.5723 63.7415ZM86.5723 65.2415L87.8973 67.3615C91.7692 64.9415 101.846 59.7303 110.983 58.2075L110.572 55.7415L110.161 53.2755C100.098 54.9527 89.3753 60.5415 85.2473 63.1215L86.5723 65.2415ZM69.5 146H67V153.5H69.5H72V146H69.5ZM87 153.5H89.5V146H87H84.5V153.5H87Z" fill="#000009"/>
</svg>
