<svg width="176" height="157" viewBox="0 0 176 157" fill="none" xmlns="http://www.w3.org/2000/svg">
<path d="M50 147C50 144.9 51.575 143.5 53.5 143.5C55.425 143.5 57 144.9 57 147C57 149.1 55.425 150.5 53.5 150.5C51.575 150.5 50 149.1 50 147Z" stroke="black"/>
<path d="M28 4C28 1.9 29.575 0.5 31.5 0.5C33.425 0.5 35 1.9 35 4C35 6.1 33.425 7.5 31.5 7.5C29.575 7.5 28 6.1 28 4Z" stroke="black"/>
<path d="M165 46C165 43.9 166.575 42.5 168.5 42.5C170.425 42.5 172 43.9 172 46C172 48.1 170.425 49.5 168.5 49.5C166.575 49.5 165 48.1 165 46Z" stroke="#BFC1C4"/>
<path d="M13 128.5C13 127.3 13.9 126.5 15 126.5C16.1 126.5 17 127.3 17 128.5C17 129.7 16.1 130.5 15 130.5C13.9 130.5 13 129.7 13 128.5Z" stroke="#BFC1C4"/>
<path d="M159 110.5C159 109.3 159.9 108.5 161 108.5C162.1 108.5 163 109.3 163 110.5C163 111.7 162.1 112.5 161 112.5C159.9 112.5 159 111.7 159 110.5Z" stroke="black"/>
<path d="M121 146.5C121 145.3 121.9 144.5 123 144.5C124.1 144.5 125 145.3 125 146.5C125 147.7 124.1 148.5 123 148.5C121.9 148.5 121 147.7 121 146.5Z" stroke="#BFC1C4"/>
<path d="M34 43.5C34 42.3 34.9 41.5 36 41.5C37.1 41.5 38 42.3 38 43.5C38 44.7 37.1 45.5 36 45.5C34.9 45.5 34 44.7 34 43.5Z" stroke="#BFC1C4"/>
<path d="M48.1732 17.6753H34.433V32.1516C34.433 36.0774 37.6227 39.0217 41.3031 39.0217C44.9835 39.0217 48.1732 36.0774 48.1732 32.1516V17.6753Z" fill="#E5F066" stroke="black" stroke-linejoin="round"/>
<path d="M48.1732 32.3969C48.1732 35.3413 45.4742 39.0217 41.5485 39.0217H66.765C68.4218 39.0217 69.765 37.6804 69.765 36.0235V10.8052C69.765 4.42578 63.8763 0.5 58.7237 0.5C53.5711 0.5 48.1732 5.16186 48.1732 10.8052V32.3969Z" fill="#C8D157" stroke="black" stroke-linejoin="round"/>
<path d="M69.765 10.8052C69.765 4.42578 63.8763 0.5 58.7238 0.5H142.392C147.544 0.5 153.433 4.42578 153.433 10.8052V102.816H80.5609C73.2001 102.816 69.765 98.399 69.765 92.0196V10.8052Z" fill="#E5F066" stroke="black" stroke-linejoin="round"/>
<path d="M70 1.5C75.1843 1.5 81.1092 5.33693 81.1092 11.5719C81.1092 35.9524 81.1092 85.9604 81.1092 90.9484C81.1092 97.1835 84.5654 101.5 91.9715 101.5M133.891 1.5C139.075 1.5 145 5.33693 145 11.5719V101.5" stroke="#BCC73B" stroke-linecap="round" stroke-linejoin="round" stroke-dasharray="5 5"/>
<path d="M90.8661 92.5102C90.8661 96.6814 87.9217 102.815 80.5609 102.815H164.229C169.627 102.815 174.534 98.6443 174.534 92.5102V89.6213C174.534 87.9645 173.191 86.6216 171.534 86.6216H93.8661C92.2092 86.6216 90.8661 87.9639 90.8661 89.6207V92.5102Z" fill="#C8D157" stroke="black" stroke-linejoin="round"/>
<path d="M109.513 18.6565L114.175 10.5596L118.592 18.6565L114.175 26.2627L109.513 18.6565Z" fill="#C4C4C4"/>
<path d="M109.513 18.6565L114.175 10.5596L118.592 18.6565L114.175 26.2627L109.513 18.6565Z" fill="#9CA43F"/>
<path d="M125.374 77.8816C125.141 79.8417 124.711 81.7574 124 81.4715C123.396 81.2288 124.16 79.5196 125.374 77.8816C126.572 76.2649 128.208 74.7175 129.4 74.7175C131.8 74.7175 130.2 77.6121 132.6 77.6121C133.816 77.6121 134.776 76.6211 135.27 75.6434C134.484 74.8595 134.425 73.7526 135.2 73.7526C135.792 73.7526 135.751 74.6917 135.27 75.6434C134.776 76.6211 133.816 77.6121 132.6 77.6121C130.2 77.6121 131.8 74.7175 129.4 74.7175C128.208 74.7175 126.572 76.2649 125.374 77.8816Z" fill="#E7E7E7"/>
<path d="M92.8 39.5H137M132.2 46.254H88M92.8 52.2844H137M132.2 58.7973H88M92.8 65.5513H137M121 78.0945C121 76.3256 121.6 72.7878 124 72.7878C125.2 72.7878 125.6 72.7878 125.6 74.4763C125.6 76.1648 125.2 81.954 124 81.4715C122.8 80.9891 127 74.7175 129.4 74.7175C131.8 74.7175 130.2 77.6121 132.6 77.6121C135 77.6121 136.4 73.7526 135.2 73.7526C134 73.7526 134.8 76.406 137.2 76.406C139.12 76.406 139.867 73.9939 140 72.7878" stroke="black" stroke-linecap="round" stroke-linejoin="round"/>
<path d="M104.435 149.295C100.099 148.753 97.0241 144.799 97.5665 140.463C98.1088 136.128 102.063 133.053 106.398 133.595C110.734 134.138 113.809 138.092 113.266 142.427C112.724 146.763 108.77 149.838 104.435 149.295Z" stroke="url(#paint0_linear_46_176)"/>
<ellipse cx="33.5798" cy="105.569" rx="27.0852" ry="9.66679" transform="rotate(31.5561 33.5798 105.569)" fill="#8A74C9" stroke="black"/>
<path d="M23.0801 122.665C35.8269 130.493 48.4252 133.152 51.2191 128.602L56.6599 119.743C53.8659 124.293 41.2676 121.634 28.5208 113.806C15.7741 105.978 7.70571 95.9434 10.4997 91.394L5.05894 100.253C2.26496 104.802 10.3333 114.837 23.0801 122.665Z" fill="#A890F0" stroke="black"/>
<ellipse cx="33.5798" cy="105.569" rx="24.3494" ry="7.66047" transform="rotate(31.5561 33.5798 105.569)" fill="#645296"/>
<ellipse cx="41.1205" cy="93.2904" rx="27.0852" ry="9.66679" transform="rotate(31.5561 41.1205 93.2904)" fill="#8A74C9" stroke="black"/>
<path d="M30.6208 110.387C43.3676 118.215 55.9659 120.873 58.7599 116.324L64.2006 107.465C61.4066 112.014 48.8083 109.356 36.0616 101.528C23.3148 93.6993 15.2464 83.6651 18.0404 79.1157L12.5996 87.9748C9.80567 92.5241 17.874 102.558 30.6208 110.387Z" fill="#A890F0" stroke="black"/>
<ellipse cx="41.1205" cy="93.2903" rx="24.3494" ry="7.66047" transform="rotate(31.5561 41.1205 93.2903)" fill="#645296"/>
<ellipse cx="48.6612" cy="81.012" rx="27.0852" ry="9.66679" transform="rotate(31.5561 48.6612 81.012)" fill="#8A74C9" stroke="black"/>
<path d="M38.1615 98.1084C50.9082 105.937 63.5065 108.595 66.3005 104.046L71.7413 95.1866C68.9473 99.736 56.349 97.0778 43.6022 89.2493C30.8554 81.4209 22.7871 71.3868 25.5811 66.8374L20.1403 75.6964C17.3463 80.2458 25.4147 90.28 38.1615 98.1084Z" fill="#A890F0" stroke="black"/>
<ellipse cx="48.6611" cy="81.012" rx="24.3494" ry="7.66047" transform="rotate(31.5561 48.6611 81.012)" fill="#645296"/>
<path d="M34.237 73.6568C36.4561 75.0197 38.5951 75.5706 39.0147 74.8874L45.5674 64.2178C48.8716 58.8376 55.9092 57.1531 61.2861 60.4553C66.663 63.7575 68.3433 70.7961 65.039 76.1763L58.4863 86.8459C58.0667 87.5291 59.5255 89.1877 61.7445 90.5505C63.9636 91.9134 66.1026 92.4643 66.5222 91.7811L73.0749 81.1115C79.1065 71.2905 76.0394 58.4424 66.2244 52.4145C56.4093 46.3866 43.5631 49.4615 37.5315 59.2826L30.9788 69.9522C30.5592 70.6354 32.018 72.294 34.237 73.6568Z" fill="#A890F0" stroke="black"/>
<defs>
<linearGradient id="paint0_linear_46_176" x1="106.622" y1="153.656" x2="81.6894" y2="109.458" gradientUnits="userSpaceOnUse">
<stop stop-color="#BFC1C4"/>
<stop offset="1"/>
</linearGradient>
</defs>
</svg>
