<svg width="141" height="158" viewBox="0 0 141 158" fill="none" xmlns="http://www.w3.org/2000/svg">
<path d="M40.5748 95.3739V107.357C40.5748 100.998 44.9766 98.3085 49.8676 98.3085H91.6853V91.9502C91.6853 88.82 93.4787 86.7332 94.3754 86.0811H49.8676C45.4657 86.0811 40.5748 89.2602 40.5748 95.3739Z" fill="#B3BD3E" stroke="black"/>
<path d="M14.2109 78.5042C12.7137 74.7392 14.5522 70.4733 18.3172 68.9761L59.2206 52.7109C62.9856 51.2138 67.2515 53.0522 68.7487 56.8173L85.0139 97.7207C86.5111 101.486 84.6726 105.752 80.9075 107.249L40.0042 123.514C36.2391 125.011 31.9732 123.173 30.4761 119.408L14.2109 78.5042Z" fill="#A890F0" stroke="black"/>
<path d="M19.055 79.819C17.7627 76.5691 19.3496 72.8869 22.5995 71.5946L57.9059 57.5551C61.1557 56.2628 64.8379 57.8497 66.1302 61.0995L80.1698 96.4059C81.4621 99.6558 79.8752 103.338 76.6253 104.63L41.3189 118.67C38.069 119.962 34.3869 118.375 33.0946 115.125L19.055 79.819Z" stroke="#D6C8FF" stroke-linecap="round" stroke-linejoin="round" stroke-dasharray="5 5"/>
<path d="M43.5122 98.5565L44.6314 81.848L57.7982 74.3455L69.4648 83.3064L68.4434 99.976L55.0214 107.977L43.5122 98.5565Z" fill="#9071EC"/>
<path d="M40.0677 95.1891L41.1869 78.4806L54.3537 70.9781L66.0204 79.939L64.999 96.6086L51.577 104.609L40.0677 95.1891Z" fill="#574292" stroke="#2D264B" stroke-linejoin="round"/>
<path d="M45.2519 103.951L33.7426 94.531L40.0677 95.1892L51.577 104.609L45.2519 103.951Z" fill="#8970CC" fill-opacity="0.7" stroke="#2D264B" stroke-linejoin="round"/>
<path d="M33.7426 94.5309L34.8619 77.8224L41.187 78.4806L40.0677 95.1891L33.7426 94.5309Z" fill="#A58EE3" fill-opacity="0.71" stroke="#2D264B" stroke-linejoin="round"/>
<path d="M34.8619 77.8224L48.0287 70.32L54.3538 70.9782L41.187 78.4806L34.8619 77.8224Z" fill="#E1D6FF" stroke="#2D264B" stroke-linejoin="round"/>
<path d="M33.7426 94.5309L34.8619 77.8224L48.0286 70.3199L59.6953 79.2808L58.6739 95.9504L45.2519 103.951L33.7426 94.5309Z" fill="#B8A5F0" fill-opacity="0.7" stroke="black" stroke-linejoin="round"/>
<path d="M48.0287 70.3198L59.6954 79.2807L66.0204 79.9389L54.3538 70.978L48.0287 70.3198Z" fill="#A58EE3" fill-opacity="0.71" stroke="black" stroke-linejoin="round"/>
<path d="M59.6953 79.2808L58.6739 95.9504L64.999 96.6086L66.0204 79.939L59.6953 79.2808Z" fill="#8970CC" fill-opacity="0.7" stroke="black" stroke-linejoin="round"/>
<path d="M58.6739 95.9505L45.2519 103.951L51.577 104.609L64.999 96.6087L58.6739 95.9505Z" fill="#6853A3" fill-opacity="0.7" stroke="black" stroke-linejoin="round"/>
<path d="M83.128 22.0279C84.5559 18.236 88.7874 16.3197 92.5793 17.7476L133.774 33.2606C137.566 34.6885 139.482 38.92 138.054 42.7118L122.541 83.9063C121.113 87.6982 116.882 89.6145 113.09 88.1866L71.8953 72.6737C68.1035 71.2457 66.1871 67.0143 67.6151 63.2224L83.128 22.0279Z" fill="#A890F0" stroke="black"/>
<path d="M85.869 26.3312C87.0983 23.0668 90.7412 21.417 94.0057 22.6463L129.47 36.0016C132.735 37.2309 134.385 40.8738 133.155 44.1382L119.8 79.6031C118.571 82.8675 114.928 84.5173 111.663 83.288L76.1986 69.9327C72.9342 68.7034 71.2844 65.0605 72.5137 61.796L85.869 26.3312Z" stroke="#D6C8FF" stroke-linecap="round" stroke-linejoin="round" stroke-dasharray="5 5"/>
<path d="M108.729 41.5985L99.1087 60.9741L114.11 62.4108L108.729 41.5985Z" fill="#9071EC"/>
<path d="M97.3475 72.851L99.1087 60.9741L114.11 62.4108L97.3475 72.851Z" fill="#9071EC"/>
<path d="M92.0991 52.3306L99.1087 60.974L97.3475 72.851L92.0991 52.3306Z" fill="#9071EC"/>
<path d="M108.729 41.5986L92.0991 52.3307L99.1087 60.9742L108.729 41.5986Z" fill="#9071EC"/>
<path d="M91.8195 47.5219L108.45 36.7898L106.125 49.5198L91.8195 47.5219Z" fill="#B8A5F0" fill-opacity="0.7" stroke="#2D264B" stroke-linejoin="round"/>
<path d="M97.0679 68.0422L91.8195 47.5218L106.125 49.5197L97.0679 68.0422Z" fill="#8970CC" fill-opacity="0.7" stroke="#2D264B" stroke-linejoin="round"/>
<path d="M113.83 57.6019L106.125 49.5197L97.0679 68.0422L113.83 57.6019Z" fill="#6853A3" fill-opacity="0.7" stroke="#2D264B" stroke-linejoin="round"/>
<path d="M113.83 57.6021L106.125 49.5198L108.45 36.7898L113.83 57.6021Z" fill="#A58EE3" fill-opacity="0.71" stroke="#2D264B" stroke-linejoin="round"/>
<path d="M108.45 36.7897L98.8291 56.1652L113.83 57.602L108.45 36.7897Z" fill="#B8A5F0" fill-opacity="0.7" stroke="black" stroke-linejoin="round"/>
<path d="M97.0679 68.0422L98.8291 56.1652L113.83 57.602L97.0679 68.0422Z" fill="#8970CC" fill-opacity="0.7" stroke="black" stroke-linejoin="round"/>
<path d="M91.8195 47.5217L98.8291 56.1652L97.0679 68.0421L91.8195 47.5217Z" fill="#6853A3" fill-opacity="0.7" stroke="black" stroke-linejoin="round"/>
<path d="M108.45 36.7898L91.8195 47.5219L98.8291 56.1653L108.45 36.7898Z" fill="#A58EE3" fill-opacity="0.71" stroke="black" stroke-linejoin="round"/>
<path d="M23.9308 21.1771C22.8584 18.0606 24.5155 14.6648 27.632 13.5924L61.4894 1.94177C64.6059 0.869364 68.0016 2.52641 69.074 5.6429L80.7247 39.5003C81.7971 42.6168 80.14 46.0126 77.0235 47.085L43.1662 58.7356C40.0497 59.808 36.6539 58.151 35.5815 55.0345L23.9308 21.1771Z" fill="#A890F0" stroke="black"/>
<path d="M27.7024 22.3939C26.7724 19.6914 28.2094 16.7466 30.9119 15.8166L60.2726 5.71335C62.9752 4.78337 65.9199 6.22034 66.8499 8.92291L76.9532 38.2836C77.8831 40.9861 76.4462 43.9309 73.7436 44.8609L44.3829 54.9641C41.6804 55.8941 38.7356 54.4571 37.8056 51.7546L27.7024 22.3939Z" stroke="#D6C8FF" stroke-linecap="round" stroke-linejoin="round" stroke-dasharray="5 5"/>
<path d="M49.6776 20.1428L42.6874 34.7411L42.3529 30.6425L49.6776 20.1428Z" fill="#9071EC"/>
<path d="M57.7057 31.0973L42.6874 34.7411L49.6776 20.1428L57.7057 31.0973Z" fill="#9071EC"/>
<path d="M65.0206 25.1283L57.7057 31.0971L49.6776 20.1426L65.0206 25.1283Z" fill="#9071EC"/>
<path d="M57.7057 31.0971L65.0206 25.1283L58.4921 45.8884L57.7057 31.0971Z" fill="#9071EC"/>
<path d="M58.4921 45.8884L57.7057 31.0972L42.6874 34.741L58.4921 45.8884Z" fill="#9071EC"/>
<path d="M52.8371 22.5649L62.2196 22.4742L46.8766 17.4885L52.8371 22.5649Z" fill="#A58EE3" fill-opacity="0.71" stroke="#2D264B" stroke-linejoin="round"/>
<path d="M52.8372 22.5649L46.8766 17.4885L39.5519 27.9882L52.8372 22.5649Z" fill="#A58EE3" fill-opacity="0.71" stroke="#2D264B" stroke-linejoin="round"/>
<path d="M55.6911 43.2343L52.8372 22.565L62.2196 22.4743L55.6911 43.2343Z" fill="#8C79C4" stroke="#2D264B" stroke-linejoin="round"/>
<path d="M52.8372 22.565L55.6911 43.2344L39.5519 27.9883L52.8372 22.565Z" fill="#7057B6" stroke="#2D264B" stroke-linejoin="round"/>
<path d="M39.5518 27.9883L55.6911 43.2343L39.8864 32.0869L39.5518 27.9883Z" fill="#644E9E" fill-opacity="0.7" stroke="#2D264B" stroke-linejoin="round"/>
<path d="M46.8766 17.4885L39.8864 32.0868L39.5519 27.9882L46.8766 17.4885Z" fill="#8970CC" fill-opacity="0.7" stroke="black" stroke-linejoin="round"/>
<path d="M54.9047 28.443L39.8864 32.0868L46.8766 17.4885L54.9047 28.443Z" fill="#A58EE3" fill-opacity="0.71" stroke="black" stroke-linejoin="round"/>
<path d="M62.2196 22.4742L54.9047 28.443L46.8766 17.4885L62.2196 22.4742Z" fill="#E1D6FF" fill-opacity="0.7" stroke="#2D264B" stroke-linejoin="round"/>
<path d="M54.9047 28.4431L62.2196 22.4743L55.6911 43.2343L54.9047 28.4431Z" fill="#6853A3" fill-opacity="0.7" stroke="black" stroke-linejoin="round"/>
<path d="M55.691 43.2343L54.9046 28.4431L39.8864 32.0869L55.691 43.2343Z" fill="#8970CC" fill-opacity="0.7" stroke="black" stroke-linejoin="round"/>
<path d="M40.8193 147.707C40.8193 152.843 45.4657 157 50.3567 157H109.782C116.874 157 120.053 151.375 120.053 146.729V91.461C120.053 87.5483 117.607 85.1028 113.695 85.1028H98.5326C93.8862 85.1028 91.9298 88.771 91.9298 91.7056V98.3084H48.8894C45.2211 98.3084 40.8193 101.977 40.8193 106.378V147.707Z" fill="#E5F066" stroke="black"/>
<rect x="54.5" y="109" width="51" height="37" rx="3" fill="#C8D157"/>
<path d="M0.5 83.5C0.5 81.4 2.075 80 4 80C5.925 80 7.5 81.4 7.5 83.5C7.5 85.6 5.925 87 4 87C2.075 87 0.5 85.6 0.5 83.5Z" stroke="black"/>
<path d="M80.5 8.5C80.5 6.4 82.075 5 84 5C85.925 5 87.5 6.4 87.5 8.5C87.5 10.6 85.925 12 84 12C82.075 12 80.5 10.6 80.5 8.5Z" stroke="#BFC1C4"/>
<path d="M13.5 43C13.5 41.8 14.4 41 15.5 41C16.6 41 17.5 41.8 17.5 43C17.5 44.2 16.6 45 15.5 45C14.4 45 13.5 44.2 13.5 43Z" stroke="#BFC1C4"/>
<path d="M126.5 119C126.5 117.8 127.4 117 128.5 117C129.6 117 130.5 117.8 130.5 119C130.5 120.2 129.6 121 128.5 121C127.4 121 126.5 120.2 126.5 119Z" stroke="#BFC1C4"/>
<path d="M136.5 62C136.5 60.8 137.4 60 138.5 60C139.6 60 140.5 60.8 140.5 62C140.5 63.2 139.6 64 138.5 64C137.4 64 136.5 63.2 136.5 62Z" stroke="black"/>
<path d="M25.5 132C25.5 130.8 26.4 130 27.5 130C28.6 130 29.5 130.8 29.5 132C29.5 133.2 28.6 134 27.5 134C26.4 134 25.5 133.2 25.5 132Z" stroke="#BFC1C4"/>
<path d="M67.5 132.516V122L73.8583 132.516V122M78.7492 132.516V127.258M78.7492 127.258V122H83.1511M78.7492 127.258H81.1947M86.8193 122H89.6316M92.4439 122H89.6316M89.6316 122V132.516" stroke="black" stroke-width="3" stroke-linecap="round" stroke-linejoin="round"/>
</svg>
