<svg width="153" height="158" viewBox="0 0 153 158" fill="none" xmlns="http://www.w3.org/2000/svg">
<path d="M40.4773 93.8019C35.7613 95.7298 35.8031 100.136 37.7032 104.818C42.8816 117.579 53.7933 144.423 56.0126 149.711C58.7867 156.32 63.2254 156.045 67.3866 154.393C71.5478 152.74 113.715 135.389 120.373 132.635C127.031 129.881 127.308 125.474 125.644 121.619C123.979 117.763 108.167 79.4805 106.502 75.0739C104.838 70.6673 100.122 69.5656 96.5152 70.9427C92.9088 72.3198 45.1934 91.874 40.4773 93.8019Z" fill="#A890F0" stroke="black"/>
<path d="M36.5 101.038C37.2407 101.038 39.2777 100.817 41.4999 99.9307C44.2776 98.8229 88.1653 81.0987 92.3318 79.437C96.4984 77.7754 102.054 77.4984 104.276 83.0373C106.498 88.5761 117.609 114.886 119.553 119.594C121.498 124.302 120.387 128.179 116.776 129.84C113.165 131.502 66.7769 150.057 63.1659 151.442C60.2771 152.55 57.8883 152.457 57.055 152.273" stroke="black" stroke-linejoin="round" stroke-dasharray="5 5"/>
<path d="M91.2096 99.749C86.6644 101.711 87.2326 105.075 88.0848 107.038C88.3689 107.879 89.562 110.29 90.9255 113.205C92.6299 116.849 94.9025 116.849 97.7432 115.728C100.584 114.607 112.799 109.841 117.06 107.879C121.321 105.916 120.753 103.674 119.901 101.151C119.049 98.6277 118.48 97.5063 117.06 94.4226C115.684 91.4355 113.367 90.7783 110.526 91.8996C107.686 93.021 95.7547 97.7866 91.2096 99.749Z" fill="#A890F0" stroke="black"/>
<path d="M98.1862 102.065C96.1202 102.928 96.3785 104.408 96.7658 105.272C96.8949 105.642 97.4373 106.703 98.057 107.986C98.8318 109.589 99.8648 109.589 101.156 109.096C102.447 108.602 111.272 104.709 113.209 103.846C115.146 102.982 114.887 101.996 114.5 100.886C114.113 99.7754 113.854 99.282 113.209 97.9252C112.583 96.6109 111.53 96.3217 110.239 96.8151C108.948 97.3085 100.252 101.201 98.1862 102.065Z" fill="#645296"/>
<path d="M71.1396 102.885C80.6619 102.886 87 110.503 87 118.961C87 127.431 80.0916 135.036 71.1396 135.036C68.6434 135.036 66.279 134.508 64.167 133.543L59.6357 135.832L58.7627 136.272L58.916 135.307L59.6855 130.465C56.7839 127.611 55 123.604 55 118.961C55 109.606 62.5023 102.885 71.1396 102.885Z" fill="#8A74C9" stroke="black"/>
<path d="M71.1396 103.385C80.3558 103.385 86.5 110.748 86.5 118.961C86.5 122.708 85.1042 126.279 82.7638 129.054C83.8763 126.892 84.5 124.466 84.5 121.961C84.5 113.748 78.3558 106.385 69.1396 106.385C64.4319 106.385 60.0769 108.442 57.1645 111.851C59.7812 106.684 65.1776 103.385 71.1396 103.385Z" fill="#645296"/>
<path d="M62.1765 118.254L60.5 120.877L70.5588 126.385L79.5 111.959L76.7059 110.385L69.1618 122.189L62.1765 118.254Z" fill="white" stroke="black"/>
<path d="M98 99.8855C101.284 99.8855 104 102.293 104 105.885C104 109.478 101.284 111.885 98 111.885C94.7155 111.885 92 109.478 92 105.885C92 102.293 94.7155 99.8855 98 99.8855Z" fill="#8A74C9" stroke="black"/>
<path d="M31.5 120.885C31.5 118.785 33.075 117.385 35 117.385C36.925 117.385 38.5 118.785 38.5 120.885C38.5 122.985 36.925 124.385 35 124.385C33.075 124.385 31.5 122.985 31.5 120.885Z" stroke="black"/>
<path d="M0.5 6.8855C0.5 4.7855 2.075 3.3855 4 3.3855C5.925 3.3855 7.5 4.7855 7.5 6.8855C7.5 8.9855 5.925 10.3855 4 10.3855C2.075 10.3855 0.5 8.9855 0.5 6.8855Z" stroke="black"/>
<path d="M105.5 65.8855C105.5 63.7855 107.075 62.3855 109 62.3855C110.925 62.3855 112.5 63.7855 112.5 65.8855C112.5 67.9855 110.925 69.3855 109 69.3855C107.075 69.3855 105.5 67.9855 105.5 65.8855Z" stroke="#BFC1C4"/>
<path d="M28.5 86.3855C28.5 85.1855 29.4 84.3855 30.5 84.3855C31.6 84.3855 32.5 85.1855 32.5 86.3855C32.5 87.5855 31.6 88.3855 30.5 88.3855C29.4 88.3855 28.5 87.5855 28.5 86.3855Z" stroke="#BFC1C4"/>
<path d="M128.5 131.385C128.5 130.185 129.4 129.385 130.5 129.385C131.6 129.385 132.5 130.185 132.5 131.385C132.5 132.585 131.6 133.385 130.5 133.385C129.4 133.385 128.5 132.585 128.5 131.385Z" stroke="black"/>
<path d="M50.5 155.385C50.5 154.185 51.4 153.385 52.5 153.385C53.6 153.385 54.5 154.185 54.5 155.385C54.5 156.585 53.6 157.385 52.5 157.385C51.4 157.385 50.5 156.585 50.5 155.385Z" stroke="#BFC1C4"/>
<path d="M0.5 38.3855C0.5 37.1855 1.4 36.3855 2.5 36.3855C3.6 36.3855 4.5 37.1855 4.5 38.3855C4.5 39.5855 3.6 40.3855 2.5 40.3855C1.4 40.3855 0.5 39.5855 0.5 38.3855Z" stroke="#BFC1C4"/>
<path d="M7.5 37.2026V29.0481C7.5 27.6385 7.78998 26.5395 8.26647 25.6904C8.32096 25.5933 8.3779 25.4994 8.43712 25.4087C11.8401 19.7934 18.5997 8.68101 19.7317 6.98306C21.1707 4.82452 22.6098 3.3855 25.7276 3.3855H48.0325C50.9106 3.3855 52.3496 4.10501 54.2683 6.98306C55.8032 9.2855 62.4228 20.0484 65.5406 25.1421C66.2832 26.2579 66.5 27.6801 66.5 29.0481V37.6822C66.5 40.8001 64.5813 42.7188 61.4634 42.7188C64.5813 42.7188 66.5 44.6375 66.5 48.7148V57.3489C66.5 60.4668 64.5813 62.3855 61.4634 62.3855H13.4959C9.17886 62.3855 7.5 59.9871 7.5 56.8692V48.7148C7.5 43.918 10.8577 42.7188 13.4959 42.7188C9.17886 42.7188 7.5 40.3205 7.5 37.2026Z" fill="#E5F066"/>
<path d="M13.4959 42.7188C9.17886 42.7188 7.5 40.3205 7.5 37.2026C7.5 34.0847 7.5 30.4871 7.5 29.0481C7.5 27.6385 7.78998 26.5395 8.26647 25.6904M13.4959 42.7188C17.813 42.7188 58.3455 42.7188 61.4634 42.7188M13.4959 42.7188C10.8577 42.7188 7.5 43.918 7.5 48.7148C7.5 50.1538 7.5 53.7513 7.5 56.8692C7.5 59.9871 9.17886 62.3855 13.4959 62.3855C17.813 62.3855 58.3455 62.3855 61.4634 62.3855C64.5813 62.3855 66.5 60.4668 66.5 57.3489C66.5 54.231 66.5 52.792 66.5 48.7148C66.5 44.6375 64.5813 42.7188 61.4634 42.7188M61.4634 42.7188C64.5813 42.7188 66.5 40.8001 66.5 37.6822C66.5 34.5644 66.5 31.9261 66.5 29.0481C66.5 27.6801 66.2832 26.2579 65.5406 25.1421M8.26647 25.6904C9.41137 23.6501 11.633 23.0522 13.4959 23.0522C27.6463 23.0522 56.9065 23.0522 60.7439 23.0522C63.2606 23.0522 64.721 23.9105 65.5406 25.1421M8.26647 25.6904C11.6085 20.1741 18.5805 8.70989 19.7317 6.98306C21.1707 4.82452 22.6098 3.3855 25.7276 3.3855C28.8455 3.3855 45.1545 3.3855 48.0325 3.3855C50.9106 3.3855 52.3496 4.10501 54.2683 6.98306C55.8033 9.2855 62.4228 20.0484 65.5406 25.1421" stroke="black"/>
<path d="M117.897 18.8946C118.386 18.4024 119.51 18.304 120.097 18.8946C120.684 19.4852 120.831 20.5188 120.097 21.2571C119.364 21.9954 109.926 31.2979 109.143 32.0855C108.361 32.873 107.334 32.9714 106.698 32.3315C106.079 31.7082 106.109 30.711 106.699 30.0684M117.897 18.8946C114.392 22.3892 107.256 29.5063 106.747 30.0182C106.731 30.0347 106.715 30.0514 106.699 30.0684M117.897 18.8946C115.957 16.9422 111.901 12.8603 111.197 12.1515C110.317 11.2655 108.41 10.6749 106.943 12.1515M106.943 12.1515C105.476 13.6281 101.515 17.6149 100.243 18.8946C100.227 18.911 100.211 18.9276 100.195 18.9442M106.943 12.1515C106.454 11.6593 105.339 10.5371 104.791 9.98584C104.107 9.29676 102.64 8.85378 101.515 9.98584C101.324 10.1781 101.127 10.376 100.928 10.5765M106.699 30.0684C105.036 28.3946 101.417 24.7517 100.243 23.5705C98.7952 22.1128 98.9672 20.2236 100.195 18.9442M100.195 18.9442C99.9014 18.6488 99.0893 17.8314 98.1896 16.9258C97.0648 15.7938 97.3093 14.2187 98.1896 13.3328C98.3336 13.1878 98.4893 13.031 98.6541 12.8652M100.928 10.5765C100.097 9.73974 98.3656 7.99736 98.0918 7.72173C97.7494 7.3772 97.2604 7.18032 96.7225 7.72173C96.6247 7.82018 96.1846 8.26315 95.7934 8.65691C95.4022 9.05066 95.4022 9.59208 95.7934 9.98583C96.1064 10.3008 97.831 12.0367 98.6541 12.8652M100.928 10.5765C100.146 11.3633 99.3255 12.1894 98.6541 12.8652M139.707 45.6209C139.805 45.5215 139.888 45.4386 139.951 45.3748C140.929 44.3904 141.027 42.52 139.951 41.4372C139.09 40.5709 133.692 35.0714 131.1 32.43L129.364 34.1773M139.707 45.6209C140.326 46.2443 141.672 47.5995 142.103 48.0326C142.641 48.574 142.885 50.1983 142.103 50.9858C141.915 51.1749 141.64 51.4519 141.32 51.7733M139.707 45.6209C138.391 46.9454 134.158 51.2051 132.909 52.4624M132.909 52.4624C132.807 52.5659 132.724 52.649 132.665 52.7085C131.833 53.5452 129.926 53.5944 129.046 52.7085C128.342 51.9997 122.722 46.3427 119.999 43.6028L121.76 41.8309M132.909 52.4624C133.382 52.9382 134.503 54.0669 135.208 54.7757C136.088 55.6617 137.653 55.4648 138.337 54.7757C138.489 54.6228 138.721 54.3898 138.997 54.1113M141.32 51.7733C142.168 52.6264 143.932 54.4016 144.205 54.6773C144.548 55.0218 144.646 55.6124 144.205 56.0554C143.765 56.4984 143.619 56.6461 143.179 57.089C142.738 57.532 142.298 57.4336 141.956 57.089C141.682 56.8134 139.87 54.989 138.997 54.1113M141.32 51.7733C140.605 52.4934 139.668 53.4362 138.997 54.1113M126.357 37.2043C127.97 38.8286 131.296 42.1755 131.687 42.5693C132.176 43.0614 132.127 43.7997 131.687 44.2427C131.247 44.6857 130.611 44.7349 130.122 44.2427C129.731 43.8489 126.373 40.4692 124.743 38.8286M126.357 37.2043L124.743 38.8286M126.357 37.2043L127.75 35.8015M124.743 38.8286L123.374 40.2067M129.364 34.1773L124.596 29.3784C124.107 28.8862 123.471 28.9354 123.031 29.3784C122.591 29.8214 122.542 30.5596 123.031 31.0518L127.75 35.8015M129.364 34.1773L127.75 35.8015M123.374 40.2067L118.581 35.3832C118.092 34.891 117.457 34.9402 117.016 35.3832C116.576 35.8261 116.527 36.5644 117.016 37.0566L121.76 41.8309M123.374 40.2067L121.76 41.8309M111.491 22.2415L109.975 23.7673L109.29 21.9462L107.872 22.6845L107.383 16.6305L109.143 20.322L110.415 19.5837L111.491 22.2415Z" stroke="#BFC1C4"/>
<path d="M97.2071 7.67843C96.6819 7.15324 94.9607 5.53479 92.1508 3.12628C90.2011 1.45509 87.1999 0.375409 84.2046 0.511544C81.1649 0.649698 78.0808 2.04803 76.1362 5.38162C72.5038 11.6086 74.4309 17.3626 75.9015 21.7536C75.952 21.9046 76.0021 22.054 76.0513 22.2017C76.7645 24.3412 77.1969 27.5722 76.1354 30.1982C75.616 31.483 74.7374 32.6319 73.3251 33.4711C71.9015 34.317 69.8718 34.8855 67 34.8855M95.7929 9.09265C95.3181 8.61784 93.6393 7.03629 90.8492 4.6448C89.2989 3.31599 86.8001 2.39564 84.2954 2.50948C81.8351 2.6213 79.4192 3.72294 77.8638 6.38936C74.6942 11.823 76.351 16.7845 77.8456 21.2603C77.88 21.3635 77.9144 21.4665 77.9487 21.5692C78.7355 23.9297 79.303 27.6987 77.9896 30.9477C77.3215 32.6004 76.1688 34.1078 74.3468 35.1905C72.536 36.2664 70.1282 36.8855 67 36.8855" stroke="url(#paint0_linear_45_76)"/>
<rect x="10.5" y="26.3855" width="53" height="13" rx="3" fill="#C8D157"/>
<rect x="10.5" y="26.3855" width="22" height="13" rx="3" fill="#C4C4C4"/>
<rect x="10.5" y="26.3855" width="22" height="13" rx="3" fill="#9CA43F"/>
<rect x="10.5" y="45.3855" width="53" height="14" rx="3" fill="#C8D157"/>
<rect x="10.5" y="45.3855" width="22" height="14" rx="3" fill="#C4C4C4"/>
<rect x="10.5" y="45.3855" width="22" height="14" rx="3" fill="#9CA43F"/>
<path d="M45.6342 32.8854C45.6342 31.2066 46.8333 30.2472 48.2724 30.2472C49.7114 30.2472 50.9106 31.2066 50.9106 32.8854C50.9106 34.5643 49.4716 35.5236 48.2724 35.5236C47.0732 35.5236 45.6342 34.5643 45.6342 32.8854Z" fill="#E7E7E7"/>
<path d="M54.0285 32.8854C54.0285 31.2066 55.2276 30.2472 56.6667 30.2472C58.1057 30.2472 59.3049 31.2066 59.3049 32.8854C59.3049 34.5643 57.8659 35.5236 56.6667 35.5236C55.4675 35.5236 54.0285 34.5643 54.0285 32.8854Z" fill="#E7E7E7"/>
<path d="M45.6342 52.3123C45.6342 50.6334 46.8333 49.674 48.2724 49.674C49.7114 49.674 50.9106 50.6334 50.9106 52.3123C50.9106 53.9911 49.4716 54.9505 48.2724 54.9505C47.0732 54.9505 45.6342 53.9911 45.6342 52.3123Z" fill="#E7E7E7"/>
<path d="M54.0285 52.3123C54.0285 50.6334 55.2276 49.674 56.6667 49.674C58.1057 49.674 59.3049 50.6334 59.3049 52.3123C59.3049 53.9911 57.8659 54.9505 56.6667 54.9505C55.4675 54.9505 54.0285 53.9911 54.0285 52.3123Z" fill="#E7E7E7"/>
<path d="M15.8943 28.5684V37.2025M21.6504 28.5684V37.2025M27.1667 28.5684V37.2025M15.8943 47.9952V56.6293M21.6504 47.9952V56.6293M27.1667 47.9952V56.6293M48.2724 30.2472C46.8333 30.2472 45.6342 31.2066 45.6342 32.8854C45.6342 34.5643 47.0732 35.5236 48.2724 35.5236C49.4716 35.5236 50.9106 34.5643 50.9106 32.8854C50.9106 31.2066 49.7114 30.2472 48.2724 30.2472ZM56.6667 30.2472C55.2276 30.2472 54.0285 31.2066 54.0285 32.8854C54.0285 34.5643 55.4675 35.5236 56.6667 35.5236C57.8659 35.5236 59.3049 34.5643 59.3049 32.8854C59.3049 31.2066 58.1057 30.2472 56.6667 30.2472ZM48.2724 49.674C46.8333 49.674 45.6342 50.6334 45.6342 52.3123C45.6342 53.9911 47.0732 54.9505 48.2724 54.9505C49.4716 54.9505 50.9106 53.9911 50.9106 52.3123C50.9106 50.6334 49.7114 49.674 48.2724 49.674ZM56.6667 49.674C55.2276 49.674 54.0285 50.6334 54.0285 52.3123C54.0285 53.9911 55.4675 54.9505 56.6667 54.9505C57.8659 54.9505 59.3049 53.9911 59.3049 52.3123C59.3049 50.6334 58.1057 49.674 56.6667 49.674Z" stroke="black" stroke-linecap="round" stroke-linejoin="round"/>
<path d="M118.996 99.3014C122 98.25 123.535 96.2218 124.235 93.8676C124.885 91.6811 124.812 89.2017 124.752 87.1215L124.749 87.0296C124.718 85.9365 124.689 84.9487 124.734 84.0499C124.78 83.148 124.896 82.4397 125.104 81.8992C125.3 81.3876 125.564 81.0564 125.926 80.8307C126.307 80.5925 126.935 80.3856 128 80.3856C132.71 80.3856 137.09 79.9411 140.776 79.0034C144.433 78.0729 147.559 76.6181 149.588 74.4807C151.697 72.2582 152.516 69.3993 151.673 66.0718C150.858 62.8563 148.517 59.2816 144.561 55.325M118.004 96.4698C120 95.7713 120.902 94.5494 121.359 93.013C121.856 91.3412 121.815 89.3303 121.751 87.1166L121.749 87.0533C121.718 86.0094 121.687 84.9191 121.738 83.899C121.79 82.8615 121.932 81.7925 122.303 80.8252C122.684 79.829 123.319 78.9218 124.336 78.2863C125.334 77.6631 126.565 77.3856 128 77.3856C132.54 77.3856 136.659 76.9552 140.036 76.096C143.442 75.2296 145.941 73.9656 147.412 72.4155C148.803 70.9505 149.359 69.1532 148.765 66.8088C148.142 64.3524 146.233 61.2396 142.439 57.4463" stroke="url(#paint1_linear_45_76)"/>
<defs>
<linearGradient id="paint0_linear_45_76" x1="96" y1="7.8855" x2="66.5" y2="35.3855" gradientUnits="userSpaceOnUse">
<stop stop-color="#BFC1C4"/>
<stop offset="1"/>
</linearGradient>
<linearGradient id="paint1_linear_45_76" x1="150.642" y1="64.2513" x2="115.254" y2="94.9684" gradientUnits="userSpaceOnUse">
<stop stop-color="#BFC1C4"/>
<stop offset="1"/>
</linearGradient>
</defs>
</svg>
