<svg width="151" height="161" viewBox="0 0 151 161" fill="none" xmlns="http://www.w3.org/2000/svg">
<path d="M13.5 88C13.5 84.7 15.975 82.5 19 82.5C22.025 82.5 24.5 84.7 24.5 88C24.5 91.3 22.025 93.5 19 93.5C15.975 93.5 13.5 91.3 13.5 88Z" stroke="black"/>
<path d="M119.5 6.5C119.5 2.9 122.2 0.5 125.5 0.5C128.8 0.5 131.5 2.9 131.5 6.5C131.5 10.1 128.8 12.5 125.5 12.5C122.2 12.5 119.5 10.1 119.5 6.5Z" stroke="#BFC1C4"/>
<path d="M0.5 23.5C0.5 21.7 1.85 20.5 3.5 20.5C5.15 20.5 6.5 21.7 6.5 23.5C6.5 25.3 5.15 26.5 3.5 26.5C1.85 26.5 0.5 25.3 0.5 23.5Z" stroke="#BFC1C4"/>
<path d="M123.5 157.5C123.5 155.7 124.85 154.5 126.5 154.5C128.15 154.5 129.5 155.7 129.5 157.5C129.5 159.3 128.15 160.5 126.5 160.5C124.85 160.5 123.5 159.3 123.5 157.5Z" stroke="#BFC1C4"/>
<path d="M141.5 84.5C141.5 82.7 142.85 81.5 144.5 81.5C146.15 81.5 147.5 82.7 147.5 84.5C147.5 86.3 146.15 87.5 144.5 87.5C142.85 87.5 141.5 86.3 141.5 84.5Z" stroke="black"/>
<path d="M59.5 142C59.5 139.9 61.075 138.5 63 138.5C64.925 138.5 66.5 139.9 66.5 142C66.5 144.1 64.925 145.5 63 145.5C61.075 145.5 59.5 144.1 59.5 142Z" stroke="#BFC1C4"/>
<path d="M41.5941 67.005C38.1915 66.0024 38.2688 64.3828 41.5941 63.3802C43.9256 62.6773 61.0791 58.0134 72.4501 54.9331C75.3888 54.1367 78.4822 54.2027 81.4208 54.9739C84.3595 55.7452 108.488 62.3777 112.2 63.3802C115.912 64.3828 115.834 66.0024 112.2 67.005C108.565 68.0076 84.9782 74.4858 81.4208 75.4884C77.8635 76.491 75.2341 76.2596 72.4501 75.4884C69.6661 74.7172 44.9968 68.0076 41.5941 67.005Z" fill="#A1AC1C"/>
<path d="M71.1602 52.6648C72.9375 54.2876 74.7717 54.3649 77.0127 54.3649C76.0081 54.3649 74.4057 54.4422 73.0148 54.8285C71.6238 55.2149 42.2392 63.0943 41.3119 63.4034C40.3846 63.7124 39.0709 64.1761 39.0709 65.1807C39.0709 63.9443 39.9982 63.017 39.1482 62.167C38.2982 61.3169 34.223 56.7577 33.373 55.6759C32.5229 54.5941 32.832 54.0531 33.9912 53.744C35.1503 53.4349 56.8644 47.3303 59.4145 46.5575C61.9645 45.7848 63.51 46.2484 64.9009 47.3303C66.2919 48.4121 69.3829 51.0421 71.1602 52.6648Z" fill="#C8D157" stroke="black" stroke-linejoin="round"/>
<path d="M82.7881 52.6646C81.0108 54.2874 79.1765 54.3647 76.9355 54.3647C77.9401 54.3647 79.5425 54.4419 80.9335 54.8283C82.3244 55.2147 111.786 63.2512 112.714 63.5603C113.641 63.8694 114.955 64.3331 114.955 65.3376C114.955 64.1013 113.95 63.0168 114.8 62.1668C115.65 61.3167 119.725 56.7575 120.575 55.6757C121.425 54.5939 121.116 54.0529 119.957 53.7438C118.798 53.4347 97.0838 47.3301 94.5338 46.5573C91.9837 45.7846 90.4382 46.2482 89.0473 47.3301C87.6564 48.4119 84.5654 51.0419 82.7881 52.6646Z" fill="#C8D157" stroke="black" stroke-linejoin="round"/>
<path d="M31.1787 41.3592C29.8052 37.9051 31.4919 33.9915 34.946 32.618L72.4711 17.6962C75.9252 16.3226 79.8387 18.0093 81.2122 21.4634L96.1341 58.9885C97.5076 62.4426 95.8209 66.3561 92.3669 67.7296L54.8417 82.6515C51.3877 84.025 47.4741 82.3384 46.1006 78.8843L31.1787 41.3592Z" fill="#A890F0" stroke="black"/>
<path d="M35.6229 42.5654C34.4373 39.5839 35.8931 36.2059 38.8746 35.0203L71.265 22.1403C74.2464 20.9547 77.6245 22.4106 78.81 25.392L91.6901 57.7824C92.8756 60.7639 91.4198 64.1419 88.4383 65.3275L56.048 78.2075C53.0665 79.3931 49.6885 77.9372 48.5029 74.9558L35.6229 42.5654Z" stroke="#D6C8FF" stroke-linecap="round" stroke-linejoin="round" stroke-dasharray="5 5"/>
<path d="M58.06 59.7553L59.0868 44.4268L71.1661 37.544L81.8692 45.7647L80.9322 61.0575L68.6187 68.3974L58.06 59.7553Z" fill="#9071EC"/>
<path d="M54.8999 56.6664L55.9268 41.3379L68.0061 34.4551L78.7092 42.6758L77.7721 57.9687L65.4587 65.3085L54.8999 56.6664Z" fill="#574292" stroke="#2D264B" stroke-linejoin="round"/>
<path d="M59.6561 64.7043L49.0974 56.0623L54.9001 56.6661L65.4588 65.3082L59.6561 64.7043Z" fill="#8970CC" fill-opacity="0.7" stroke="#2D264B" stroke-linejoin="round"/>
<path d="M49.0973 56.0623L50.1241 40.7337L55.9268 41.3376L54.9 56.6661L49.0973 56.0623Z" fill="#A58EE3" fill-opacity="0.71" stroke="#2D264B" stroke-linejoin="round"/>
<path d="M50.1243 40.7338L62.2036 33.851L68.0063 34.4548L55.927 41.3376L50.1243 40.7338Z" fill="#E1D6FF" stroke="#2D264B" stroke-linejoin="round"/>
<path d="M49.0975 56.0622L50.1243 40.7336L62.2036 33.8508L72.9067 42.0716L71.9696 57.3644L59.6562 64.7043L49.0975 56.0622Z" fill="#B8A5F0" fill-opacity="0.7" stroke="black" stroke-linejoin="round"/>
<path d="M62.2035 33.8508L72.9066 42.0716L78.7093 42.6754L68.0062 34.4547L62.2035 33.8508Z" fill="#A58EE3" fill-opacity="0.71" stroke="black" stroke-linejoin="round"/>
<path d="M72.9067 42.0719L71.9696 57.3648L77.7723 57.9686L78.7094 42.6758L72.9067 42.0719Z" fill="#8970CC" fill-opacity="0.7" stroke="black" stroke-linejoin="round"/>
<path d="M71.9696 57.3647L59.6561 64.7045L65.4588 65.3083L77.7723 57.9685L71.9696 57.3647Z" fill="#6853A3" fill-opacity="0.7" stroke="black" stroke-linejoin="round"/>
<path d="M72.7384 19.9708C74.0484 16.4921 77.9304 14.7341 81.4091 16.0441L119.201 30.2758C122.68 31.5858 124.438 35.4678 123.128 38.9465L108.896 76.7387C107.586 80.2174 103.704 81.9754 100.226 80.6654L62.4334 66.4337C58.9547 65.1237 57.1967 61.2417 58.5067 57.7631L72.7384 19.9708Z" fill="#A890F0" stroke="black"/>
<path d="M75.253 23.9187C76.3808 20.9239 79.7228 19.4103 82.7177 20.5381L115.253 32.7904C118.248 33.9182 119.762 37.2602 118.634 40.255L106.382 72.7908C105.254 75.7856 101.912 77.2992 98.9171 76.1714L66.3813 63.9191C63.3865 62.7913 61.873 59.4493 63.0008 56.4545L75.253 23.9187Z" stroke="#D6C8FF" stroke-linecap="round" stroke-linejoin="round" stroke-dasharray="5 5"/>
<path d="M96.2251 37.9251L87.3992 55.7004L101.161 57.0185L96.2251 37.9251Z" fill="#9071EC"/>
<path d="M85.7836 66.5962L87.3993 55.7002L101.161 57.0182L85.7836 66.5962Z" fill="#9071EC"/>
<path d="M80.9686 47.7708L87.3993 55.7003L85.7836 66.5964L80.9686 47.7708Z" fill="#9071EC"/>
<path d="M96.225 37.9249L80.9684 47.7706L87.3991 55.7002L96.225 37.9249Z" fill="#9071EC"/>
<path d="M80.7121 43.3587L95.9687 33.513L93.8361 45.1916L80.7121 43.3587Z" fill="#B8A5F0" fill-opacity="0.7" stroke="#2D264B" stroke-linejoin="round"/>
<path d="M85.527 62.1843L80.7121 43.3586L93.8361 45.1915L85.527 62.1843Z" fill="#8970CC" fill-opacity="0.7" stroke="#2D264B" stroke-linejoin="round"/>
<path d="M100.905 52.6065L93.8361 45.1917L85.527 62.1844L100.905 52.6065Z" fill="#6853A3" fill-opacity="0.7" stroke="#2D264B" stroke-linejoin="round"/>
<path d="M100.905 52.6063L93.8361 45.1916L95.9686 33.5129L100.905 52.6063Z" fill="#A58EE3" fill-opacity="0.71" stroke="#2D264B" stroke-linejoin="round"/>
<path d="M95.9686 33.513L87.1427 51.2883L100.905 52.6064L95.9686 33.513Z" fill="#B8A5F0" fill-opacity="0.7" stroke="black" stroke-linejoin="round"/>
<path d="M85.527 62.1843L87.1427 51.2883L100.905 52.6064L85.527 62.1843Z" fill="#8970CC" fill-opacity="0.7" stroke="black" stroke-linejoin="round"/>
<path d="M80.7122 43.3586L87.1428 51.2882L85.5271 62.1843L80.7122 43.3586Z" fill="#6853A3" fill-opacity="0.7" stroke="black" stroke-linejoin="round"/>
<path d="M95.9687 33.513L80.7121 43.3587L87.1428 51.2883L95.9687 33.513Z" fill="#A58EE3" fill-opacity="0.71" stroke="black" stroke-linejoin="round"/>
<path d="M48.1729 60.4542C47.189 57.5951 48.7092 54.4798 51.5683 53.4959L82.6294 42.8076C85.4885 41.8237 88.6038 43.3439 89.5876 46.203L100.276 77.2641C101.26 80.1232 99.7397 83.2385 96.8806 84.2223L65.8195 94.9107C62.9604 95.8945 59.8451 94.3743 58.8613 91.5153L48.1729 60.4542Z" fill="#A890F0" stroke="black"/>
<path d="M51.6329 61.5706C50.7798 59.0912 52.0981 56.3897 54.5774 55.5365L81.5131 46.2677C83.9925 45.4145 86.694 46.7328 87.5472 49.2122L96.816 76.1479C97.6692 78.6272 96.3509 81.3288 93.8716 82.182L66.9358 91.4508C64.4565 92.3039 61.7549 90.9857 60.9018 88.5063L51.6329 61.5706Z" stroke="#D6C8FF" stroke-linecap="round" stroke-linejoin="round" stroke-dasharray="5 5"/>
<path d="M71.7932 59.5057L65.3804 72.8983L65.0735 69.1382L71.7932 59.5057Z" fill="#9071EC"/>
<path d="M79.1583 69.5554L65.3804 72.8983L71.7932 59.5057L79.1583 69.5554Z" fill="#9071EC"/>
<path d="M85.869 64.0793L79.1583 69.5551L71.7932 59.5054L85.869 64.0793Z" fill="#9071EC"/>
<path d="M79.1583 69.5554L85.8691 64.0795L79.8798 83.1249L79.1583 69.5554Z" fill="#9071EC"/>
<path d="M79.8797 83.1247L79.1583 69.5551L65.3804 72.8979L79.8797 83.1247Z" fill="#9071EC"/>
<path d="M74.6918 61.7277L83.2993 61.6445L69.2235 57.0706L74.6918 61.7277Z" fill="#A58EE3" fill-opacity="0.71" stroke="#2D264B" stroke-linejoin="round"/>
<path d="M74.6917 61.7275L69.2235 57.0704L62.5037 66.7029L74.6917 61.7275Z" fill="#A58EE3" fill-opacity="0.71" stroke="#2D264B" stroke-linejoin="round"/>
<path d="M77.31 80.6896L74.6918 61.7274L83.2993 61.6442L77.31 80.6896Z" fill="#8C79C4" stroke="#2D264B" stroke-linejoin="round"/>
<path d="M74.6917 61.7277L77.31 80.6899L62.5037 66.703L74.6917 61.7277Z" fill="#7057B6" stroke="#2D264B" stroke-linejoin="round"/>
<path d="M62.5037 66.7027L77.31 80.6895L62.8106 70.4628L62.5037 66.7027Z" fill="#644E9E" fill-opacity="0.7" stroke="#2D264B" stroke-linejoin="round"/>
<path d="M69.2235 57.0706L62.8107 70.4633L62.5038 66.7032L69.2235 57.0706Z" fill="#8970CC" fill-opacity="0.7" stroke="black" stroke-linejoin="round"/>
<path d="M76.5886 67.1204L62.8107 70.4633L69.2235 57.0706L76.5886 67.1204Z" fill="#A58EE3" fill-opacity="0.71" stroke="black" stroke-linejoin="round"/>
<path d="M83.2993 61.6445L76.5886 67.1203L69.2235 57.0706L83.2993 61.6445Z" fill="#E1D6FF" fill-opacity="0.7" stroke="#2D264B" stroke-linejoin="round"/>
<path d="M76.5886 67.1203L83.2994 61.6445L77.3101 80.6899L76.5886 67.1203Z" fill="#6853A3" fill-opacity="0.7" stroke="black" stroke-linejoin="round"/>
<path d="M77.31 80.6896L76.5886 67.12L62.8107 70.4629L77.31 80.6896Z" fill="#8970CC" fill-opacity="0.7" stroke="black" stroke-linejoin="round"/>
<path d="M77.5125 124.917C77.5124 125.052 77.4576 125.182 77.3601 125.276C77.2627 125.37 77.1312 125.42 76.9958 125.416C76.6141 125.402 75.9511 125.368 75.2722 125.304C74.6045 125.242 73.8802 125.148 73.3982 125.01H73.3953C71.5438 124.47 42.5814 116.515 41.1785 116.125C40.4492 115.923 39.824 115.65 39.3699 115.309C38.9205 114.972 38.571 114.513 38.571 113.943V65.1831C38.571 64.907 38.7949 64.6831 39.071 64.6831C39.3472 64.6831 39.571 64.907 39.571 65.1831C39.571 65.3087 39.6462 65.507 39.9695 65.7495C40.2881 65.9885 40.7844 66.2181 41.446 66.4019C42.8328 66.7871 71.7777 74.7369 73.6716 75.2886H73.6726C74.0561 75.3981 74.6972 75.4859 75.365 75.5483C76.0216 75.6098 76.6648 75.6441 77.03 75.6567C77.2992 75.666 77.5123 75.8865 77.5125 76.1558V124.917Z" fill="#CDD941" stroke="black" stroke-linejoin="round"/>
<path d="M76.5132 124.762C76.5132 124.897 76.5681 125.027 76.6655 125.121C76.763 125.215 76.8944 125.265 77.0298 125.261C77.4115 125.248 78.0745 125.213 78.7534 125.149C79.4212 125.087 80.1455 124.993 80.6274 124.855H80.6304C82.4818 124.315 111.444 116.36 112.847 115.971C113.576 115.768 114.202 115.495 114.656 115.154C115.105 114.817 115.455 114.358 115.455 113.788V65.0283C115.455 64.7522 115.231 64.5283 114.955 64.5283C114.678 64.5283 114.455 64.7522 114.455 65.0283C114.455 65.1539 114.379 65.3523 114.056 65.5947C113.738 65.8337 113.241 66.0633 112.58 66.2471C111.193 66.6323 82.2479 74.5821 80.354 75.1338H80.353C79.9695 75.2434 79.3284 75.3311 78.6606 75.3936C78.004 75.455 77.3608 75.4894 76.9956 75.502C76.7264 75.5112 76.5134 75.7317 76.5132 76.001V124.762Z" fill="#E5F066" stroke="black" stroke-linejoin="round"/>
<path d="M81.8811 78.6289C80.1038 77.0062 79.2538 75.9243 77.0128 75.9243C74.7719 75.9243 73.9218 77.0062 72.1445 78.6289C70.3672 80.2517 66.292 88.1337 64.9011 89.2155C63.5101 90.2974 61.9646 90.761 59.4146 89.9883C57.5912 89.4357 45.9702 86.1573 39.071 84.2205V75.9243H77.0128H114.955V84.1706C108.044 86.1107 96.5234 89.3611 94.7087 89.911C92.1586 90.6837 90.6131 90.2201 89.2222 89.1383C87.8312 88.0564 83.6584 80.2517 81.8811 78.6289Z" fill="#A1AC1C"/>
<ellipse cx="59.8267" cy="86.3336" rx="4.20255" ry="1.48325" transform="rotate(12.037 59.8267 86.3336)" fill="#CDD941"/>
<path d="M82.9628 77.4694C81.1855 75.8466 79.2537 75.8466 77.0127 75.8466C78.0173 75.8466 79.7173 75.6921 81.1082 75.3057C82.4992 74.9193 111.786 66.8828 112.714 66.5737C113.641 66.2646 114.954 65.801 114.954 64.7964C114.954 66.0328 114.027 66.9601 114.877 67.8101C115.727 68.6601 119.9 73.142 120.75 74.2239C121.6 75.3057 121.291 75.8466 120.132 76.1557C118.973 76.4648 97.2586 82.5695 94.7086 83.3423C92.1585 84.115 90.613 83.6514 89.2221 82.5695C87.8311 81.4877 84.7401 79.0922 82.9628 77.4694Z" fill="#C8D157" stroke="black" stroke-linejoin="round"/>
<path d="M71.1602 77.5467C72.9375 75.9239 74.7717 75.8466 77.0127 75.8466C76.0081 75.8466 74.4057 75.7694 73.0148 75.383C71.6238 74.9966 42.2392 66.8828 41.3119 66.5737C40.3846 66.2646 39.0709 65.801 39.0709 64.7964C39.0709 66.0328 39.9982 66.9601 39.1482 67.8101C38.2982 68.6601 34.223 73.2193 33.373 74.3011C32.5229 75.383 32.832 75.9239 33.9912 76.233C35.1503 76.5421 56.8644 82.6468 59.4145 83.4195C61.9645 84.1923 63.51 83.7286 64.9009 82.6468C66.2919 81.565 69.3829 79.1694 71.1602 77.5467Z" fill="#C8D157" stroke="black" stroke-linejoin="round"/>
<path d="M73.2379 75.2336C71.5554 74.7747 51.2516 69.1794 41.3099 66.439L40.354 63.9536C50.4231 66.6302 71.0966 72.0981 73.2379 72.557C75.9145 73.1305 78.0175 73.1305 80.1205 72.557C81.803 72.0981 103.127 66.5028 113.578 63.7625L112.431 66.439C102.234 69.2431 81.5736 74.9277 80.5029 75.2336C79.1646 75.6159 75.3409 75.8071 73.2379 75.2336Z" fill="#220B67" fill-opacity="0.3"/>
<path fill-rule="evenodd" clip-rule="evenodd" d="M39.0712 113.943C39.0712 114.639 39.9212 115.257 41.3121 115.643C41.6738 115.744 43.9002 116.356 47.03 117.217L47.0317 117.217L47.0404 117.22L47.0445 117.221C50.2923 118.114 54.5094 119.274 58.6244 120.407C58.9615 119.579 59.0699 118.668 58.9286 117.773L57.3219 107.588C56.8664 104.7 54.0179 102.836 51.1891 103.574L41.2121 106.179C40.4045 106.39 39.6699 106.8 39.0712 107.364V113.943ZM51.1919 110.262C52.3343 111.01 53.8665 110.69 54.6141 109.547C55.3617 108.405 55.0417 106.873 53.8993 106.125C52.7569 105.378 51.2247 105.698 50.4771 106.84C49.7295 107.982 50.0495 109.515 51.1919 110.262Z" fill="#A1AC1C"/>
<ellipse cx="59.8268" cy="79.9066" rx="4.20255" ry="1.48325" transform="rotate(13.978 59.8268 79.9066)" fill="#A1AC1C"/>
<path d="M54.1397 87.7705C57.024 84.1435 62.0846 87.2882 62.3669 90.3668C62.8061 91.6342 63.0006 93.4975 63.043 94.2707C63.4524 99.4985 59.4691 104.517 56.1353 106.537C55.6398 106.838 54.4954 107.44 53.8818 107.44C53.1394 107.545 52.5376 107.376 52.1796 106.875C50.1922 104.092 51.2554 91.3976 54.1397 87.7705Z" stroke="#A1AC1C"/>
<path fill-rule="evenodd" clip-rule="evenodd" d="M36.7624 88.3798C35.5754 88.6897 34.5461 89.4298 33.8744 90.4563L20.0276 111.615C18.5324 113.9 19.1725 116.964 21.4573 118.459L33.041 126.04C35.3258 127.535 38.3902 126.895 39.8854 124.61L53.7322 103.452C54.4039 102.425 54.6701 101.186 54.4789 99.9739L52.8722 89.7884C52.4166 86.9005 49.5682 85.0364 46.7394 85.775L36.7624 88.3798ZM46.7422 92.4631C47.8846 93.2107 49.4168 92.8907 50.1644 91.7482C50.912 90.6058 50.592 89.0737 49.4495 88.326C48.3071 87.5784 46.775 87.8985 46.0273 89.0409C45.2797 90.1833 45.5998 91.7155 46.7422 92.4631Z" fill="#A890F0" stroke="black"/>
<path d="M61.8178 81.6546C62.065 79.9241 57.6153 77.6992 54.1543 79.4297C50.6934 81.1602 47.4797 88.082 48.9629 89.8125C49.2301 90.1242 49.7942 90.2755 50.5438 90.288M61.8178 83.8795C61.3292 86.8113 56.5478 89.2066 52.9183 90.0046" stroke="black"/>
<path d="M31.5803 111.583C30.4081 110.829 28.8501 111.173 28.1003 112.352C27.3505 113.531 27.6929 115.098 28.8651 115.853C30.0372 116.607 31.5953 116.262 32.3451 115.083C33.0949 113.904 34.653 113.56 35.8252 114.314C36.9974 115.068 37.3398 116.635 36.59 117.814C35.8402 118.993 34.2821 119.338 33.1099 118.584M43.9891 106.18L43.3781 107.14C42.6283 108.319 41.0703 108.664 39.8981 107.91L33.5308 103.813M32.2591 110.515C31.0869 109.761 30.7445 108.194 31.4943 107.015C32.2441 105.836 33.8022 105.492 34.9744 106.246L39.2192 108.977C40.3914 109.731 40.7338 111.298 39.9841 112.477C39.2343 113.656 37.6762 114.001 36.504 113.246L32.2591 110.515ZM36.246 99.5437L37.6037 97.4089C38.3535 96.2299 39.9115 95.8855 41.0837 96.6397L45.3286 99.3707C46.5008 100.125 46.8432 101.692 46.0934 102.871L44.7358 105.006L36.246 99.5437Z" stroke="black" stroke-linecap="round" stroke-linejoin="round"/>
<path d="M141.086 121.604L146.517 117.496L135.611 120.903L141.086 121.604Z" fill="#A58EE3" fill-opacity="0.71" stroke="#2D264B" stroke-width="0.2" stroke-linejoin="round"/>
<path d="M141.086 121.604L146.517 117.496L143.388 128.169L141.086 121.604Z" fill="#A58EE3" fill-opacity="0.71" stroke="#2D264B" stroke-width="0.2" stroke-linejoin="round"/>
<path d="M137.852 126.74L141.086 121.604L143.388 128.169L137.852 126.74Z" fill="#8C79C4" stroke="#2D264B" stroke-width="0.2" stroke-linejoin="round"/>
<path d="M135.611 120.903L141.086 121.604L137.852 126.74L135.611 120.903Z" fill="#644E9E" fill-opacity="0.7" stroke="#2D264B" stroke-width="0.2" stroke-linejoin="round"/>
<path d="M135.445 128.005L136.805 127.603L142.803 128.794L135.445 128.005Z" fill="#A58EE3" fill-opacity="0.71" stroke="#2D264B" stroke-width="0.2" stroke-linejoin="round"/>
<path d="M133.932 130.923L135.445 128.005L142.803 128.794L133.932 130.923Z" fill="#8C79C4" stroke="#2D264B" stroke-width="0.2" stroke-linejoin="round"/>
<path d="M136.805 127.603L135.445 128.005L135.003 121.603L136.805 127.603Z" fill="#A58EE3" fill-opacity="0.71" stroke="#2D264B" stroke-width="0.2" stroke-linejoin="round"/>
<path d="M133.932 130.923L135.445 128.005L135.003 121.603L133.932 130.923Z" fill="#644E9E" fill-opacity="0.7" stroke="#2D264B" stroke-width="0.2" stroke-linejoin="round"/>
<path d="M136.805 127.603L135.003 121.603L136.089 129.567L136.805 127.603Z" fill="#A58EE3" fill-opacity="0.71" stroke="black" stroke-width="0.2" stroke-linejoin="round"/>
<path d="M136.089 129.567L136.804 127.603L142.802 128.794L136.089 129.567Z" fill="#E1D6FF" fill-opacity="0.7" stroke="#2D264B" stroke-width="0.2" stroke-linejoin="round"/>
<path d="M133.932 130.923L136.089 129.567L142.802 128.794L133.932 130.923Z" fill="#6853A3" fill-opacity="0.7" stroke="black" stroke-width="0.2" stroke-linejoin="round"/>
<path d="M133.932 130.923L136.089 129.567L135.003 121.603L133.932 130.923Z" fill="#8970CC" fill-opacity="0.7" stroke="black" stroke-width="0.2" stroke-linejoin="round"/>
<path d="M142.954 122.78L146.517 117.496L135.586 120.904L142.954 122.78Z" fill="#A58EE3" fill-opacity="0.71" stroke="black" stroke-width="0.2" stroke-linejoin="round"/>
<path d="M142.954 122.78L146.517 117.496L143.388 128.169L142.954 122.78Z" fill="#E1D6FF" fill-opacity="0.7" stroke="#2D264B" stroke-width="0.2" stroke-linejoin="round"/>
<path d="M142.954 122.78L135.611 120.903L137.852 126.74L142.954 122.78Z" fill="#8970CC" fill-opacity="0.7" stroke="black" stroke-width="0.2" stroke-linejoin="round"/>
<path d="M142.954 122.78L137.852 126.74L143.388 128.169L142.954 122.78Z" fill="#6853A3" fill-opacity="0.7" stroke="black" stroke-width="0.2" stroke-linejoin="round"/>
<path d="M109.353 131.017L105.229 125.599L108.67 136.494L109.353 131.017Z" fill="#A58EE3" fill-opacity="0.71" stroke="#2D264B" stroke-width="0.2" stroke-linejoin="round"/>
<path d="M109.353 131.017L105.229 125.599L115.911 128.695L109.353 131.017Z" fill="#A58EE3" fill-opacity="0.71" stroke="#2D264B" stroke-width="0.2" stroke-linejoin="round"/>
<path d="M114.5 134.235L109.353 131.017L115.911 128.695L114.5 134.235Z" fill="#8C79C4" stroke="#2D264B" stroke-width="0.2" stroke-linejoin="round"/>
<path d="M108.67 136.494L109.353 131.017L114.5 134.235L108.67 136.494Z" fill="#644E9E" fill-opacity="0.7" stroke="#2D264B" stroke-width="0.2" stroke-linejoin="round"/>
<path d="M115.773 136.638L115.366 135.28L116.538 129.278L115.773 136.638Z" fill="#A58EE3" fill-opacity="0.71" stroke="#2D264B" stroke-width="0.2" stroke-linejoin="round"/>
<path d="M118.695 138.142L115.773 136.638L116.538 129.278L118.695 138.142Z" fill="#8C79C4" stroke="#2D264B" stroke-width="0.2" stroke-linejoin="round"/>
<path d="M115.366 135.28L115.772 136.638L109.371 137.1L115.366 135.28Z" fill="#A58EE3" fill-opacity="0.71" stroke="#2D264B" stroke-width="0.2" stroke-linejoin="round"/>
<path d="M118.695 138.142L115.772 136.638L109.371 137.1L118.695 138.142Z" fill="#644E9E" fill-opacity="0.7" stroke="#2D264B" stroke-width="0.2" stroke-linejoin="round"/>
<path d="M115.366 135.28L109.371 137.1L117.332 135.989L115.366 135.28Z" fill="#A58EE3" fill-opacity="0.71" stroke="black" stroke-width="0.2" stroke-linejoin="round"/>
<path d="M117.332 135.989L115.366 135.28L116.538 129.278L117.332 135.989Z" fill="#E1D6FF" fill-opacity="0.7" stroke="#2D264B" stroke-width="0.2" stroke-linejoin="round"/>
<path d="M118.695 138.142L117.332 135.989L116.538 129.278L118.695 138.142Z" fill="#6853A3" fill-opacity="0.7" stroke="black" stroke-width="0.2" stroke-linejoin="round"/>
<path d="M118.695 138.142L117.332 135.989L109.371 137.1L118.695 138.142Z" fill="#8970CC" fill-opacity="0.7" stroke="black" stroke-width="0.2" stroke-linejoin="round"/>
<path d="M110.524 129.145L105.229 125.599L108.671 136.519L110.524 129.145Z" fill="#A58EE3" fill-opacity="0.71" stroke="black" stroke-width="0.2" stroke-linejoin="round"/>
<path d="M110.524 129.145L105.229 125.599L115.911 128.695L110.524 129.145Z" fill="#E1D6FF" fill-opacity="0.7" stroke="#2D264B" stroke-width="0.2" stroke-linejoin="round"/>
<path d="M110.523 129.145L108.67 136.494L114.5 134.235L110.523 129.145Z" fill="#8970CC" fill-opacity="0.7" stroke="black" stroke-width="0.2" stroke-linejoin="round"/>
<path d="M110.524 129.146L114.5 134.235L115.911 128.695L110.524 129.146Z" fill="#6853A3" fill-opacity="0.7" stroke="black" stroke-width="0.2" stroke-linejoin="round"/>
<path d="M103.142 149.28L106.843 146.475L99.4075 148.807L103.142 149.28Z" fill="#A58EE3" fill-opacity="0.71" stroke="#2D264B" stroke-width="0.1" stroke-linejoin="round"/>
<path d="M103.142 149.28L106.843 146.475L104.717 153.756L103.142 149.28Z" fill="#A58EE3" fill-opacity="0.71" stroke="#2D264B" stroke-width="0.1" stroke-linejoin="round"/>
<path d="M100.94 152.786L103.142 149.28L104.717 153.756L100.94 152.786Z" fill="#8C79C4" stroke="#2D264B" stroke-width="0.1" stroke-linejoin="round"/>
<path d="M99.4075 148.807L103.142 149.28L100.941 152.786L99.4075 148.807Z" fill="#644E9E" fill-opacity="0.7" stroke="#2D264B" stroke-width="0.1" stroke-linejoin="round"/>
<path d="M99.2998 153.651L100.227 153.375L104.318 154.183L99.2998 153.651Z" fill="#A58EE3" fill-opacity="0.71" stroke="#2D264B" stroke-width="0.1" stroke-linejoin="round"/>
<path d="M98.2701 155.641L99.2998 153.651L104.318 154.183L98.2701 155.641Z" fill="#8C79C4" stroke="#2D264B" stroke-width="0.1" stroke-linejoin="round"/>
<path d="M100.226 153.375L99.2996 153.65L98.9933 149.284L100.226 153.375Z" fill="#A58EE3" fill-opacity="0.71" stroke="#2D264B" stroke-width="0.1" stroke-linejoin="round"/>
<path d="M98.27 155.641L99.2996 153.65L98.9933 149.284L98.27 155.641Z" fill="#644E9E" fill-opacity="0.7" stroke="#2D264B" stroke-width="0.1" stroke-linejoin="round"/>
<path d="M100.226 153.375L98.9933 149.284L99.74 154.715L100.226 153.375Z" fill="#A58EE3" fill-opacity="0.71" stroke="black" stroke-width="0.1" stroke-linejoin="round"/>
<path d="M99.7401 154.715L100.226 153.375L104.318 154.182L99.7401 154.715Z" fill="#E1D6FF" fill-opacity="0.7" stroke="#2D264B" stroke-width="0.1" stroke-linejoin="round"/>
<path d="M98.2701 155.641L99.7402 154.715L104.318 154.182L98.2701 155.641Z" fill="#6853A3" fill-opacity="0.7" stroke="black" stroke-width="0.1" stroke-linejoin="round"/>
<path d="M98.27 155.641L99.74 154.715L98.9933 149.284L98.27 155.641Z" fill="#8970CC" fill-opacity="0.7" stroke="black" stroke-width="0.1" stroke-linejoin="round"/>
<path d="M104.417 150.081L106.843 146.475L99.3906 148.807L104.417 150.081Z" fill="#A58EE3" fill-opacity="0.71" stroke="black" stroke-width="0.1" stroke-linejoin="round"/>
<path d="M104.417 150.081L106.843 146.475L104.717 153.756L104.417 150.081Z" fill="#E1D6FF" fill-opacity="0.7" stroke="#2D264B" stroke-width="0.1" stroke-linejoin="round"/>
<path d="M104.417 150.081L99.4075 148.806L100.941 152.786L104.417 150.081Z" fill="#8970CC" fill-opacity="0.7" stroke="black" stroke-width="0.1" stroke-linejoin="round"/>
<path d="M104.417 150.081L100.94 152.786L104.717 153.756L104.417 150.081Z" fill="#6853A3" fill-opacity="0.7" stroke="black" stroke-width="0.1" stroke-linejoin="round"/>
<path d="M132.64 133.844L145.277 133.372L125.052 126.951L132.64 133.844Z" fill="#A58EE3" fill-opacity="0.71" stroke="#2D264B" stroke-width="0.2" stroke-linejoin="round"/>
<path d="M132.64 133.844L145.277 133.371L129.157 146.285L132.64 133.844Z" fill="#A58EE3" fill-opacity="0.71" stroke="#2D264B" stroke-width="0.2" stroke-linejoin="round"/>
<path d="M122.252 138.22L132.64 133.844L129.157 146.285L122.252 138.22Z" fill="#8C79C4" stroke="#2D264B" stroke-width="0.2" stroke-linejoin="round"/>
<path d="M125.052 126.95L132.64 133.843L122.251 138.22L125.052 126.95Z" fill="#644E9E" fill-opacity="0.7" stroke="#2D264B" stroke-width="0.2" stroke-linejoin="round"/>
<path d="M117.242 137.584L119.739 138.418L127.601 146.613L117.242 137.584Z" fill="#A58EE3" fill-opacity="0.71" stroke="#2D264B" stroke-width="0.2" stroke-linejoin="round"/>
<path d="M111.834 140.414L117.242 137.584L127.601 146.613L111.834 140.414Z" fill="#8C79C4" stroke="#2D264B" stroke-width="0.2" stroke-linejoin="round"/>
<path d="M119.739 138.418L117.242 137.584L123.383 127.368L119.739 138.418Z" fill="#A58EE3" fill-opacity="0.71" stroke="#2D264B" stroke-width="0.2" stroke-linejoin="round"/>
<path d="M111.834 140.414L117.242 137.584L123.383 127.368L111.834 140.414Z" fill="#644E9E" fill-opacity="0.7" stroke="#2D264B" stroke-width="0.2" stroke-linejoin="round"/>
<path d="M119.739 138.418L123.383 127.368L116.56 140.646L119.739 138.418Z" fill="#A58EE3" fill-opacity="0.71" stroke="black" stroke-width="0.2" stroke-linejoin="round"/>
<path d="M116.56 140.646L119.739 138.418L127.601 146.613L116.56 140.646Z" fill="#E1D6FF" fill-opacity="0.7" stroke="#2D264B" stroke-width="0.2" stroke-linejoin="round"/>
<path d="M111.835 140.414L116.56 140.646L127.601 146.613L111.835 140.414Z" fill="#6853A3" fill-opacity="0.7" stroke="black" stroke-width="0.2" stroke-linejoin="round"/>
<path d="M111.834 140.414L116.56 140.646L123.383 127.368L111.834 140.414Z" fill="#8970CC" fill-opacity="0.7" stroke="black" stroke-width="0.2" stroke-linejoin="round"/>
<path d="M134.231 137.621L145.277 133.371L125.014 126.925L134.231 137.621Z" fill="#A58EE3" fill-opacity="0.71" stroke="black" stroke-width="0.2" stroke-linejoin="round"/>
<path d="M134.231 137.621L145.277 133.372L129.157 146.285L134.231 137.621Z" fill="#E1D6FF" fill-opacity="0.7" stroke="#2D264B" stroke-width="0.2" stroke-linejoin="round"/>
<path d="M134.231 137.621L125.052 126.951L122.251 138.221L134.231 137.621Z" fill="#8970CC" fill-opacity="0.7" stroke="black" stroke-width="0.2" stroke-linejoin="round"/>
<path d="M134.232 137.621L122.252 138.22L129.157 146.285L134.232 137.621Z" fill="#6853A3" fill-opacity="0.7" stroke="black" stroke-width="0.2" stroke-linejoin="round"/>
<path d="M130.565 147.38L126.951 144.463L131.003 151.119L130.565 147.38Z" fill="#A58EE3" fill-opacity="0.71" stroke="#2D264B" stroke-width="0.1" stroke-linejoin="round"/>
<path d="M130.565 147.38L126.951 144.463L134.53 144.775L130.565 147.38Z" fill="#A58EE3" fill-opacity="0.71" stroke="#2D264B" stroke-width="0.1" stroke-linejoin="round"/>
<path d="M134.497 148.674L130.565 147.38L134.53 144.775L134.497 148.674Z" fill="#8C79C4" stroke="#2D264B" stroke-width="0.1" stroke-linejoin="round"/>
<path d="M131.003 151.119L130.565 147.38L134.497 148.674L131.003 151.119Z" fill="#644E9E" fill-opacity="0.7" stroke="#2D264B" stroke-width="0.1" stroke-linejoin="round"/>
<path d="M135.73 150.059L135.24 149.226L135.04 145.06L135.73 150.059Z" fill="#A58EE3" fill-opacity="0.71" stroke="#2D264B" stroke-width="0.1" stroke-linejoin="round"/>
<path d="M137.911 150.58L135.73 150.059L135.04 145.06L137.911 150.58Z" fill="#8C79C4" stroke="#2D264B" stroke-width="0.1" stroke-linejoin="round"/>
<path d="M135.24 149.226L135.731 150.059L131.566 151.406L135.24 149.226Z" fill="#A58EE3" fill-opacity="0.71" stroke="#2D264B" stroke-width="0.1" stroke-linejoin="round"/>
<path d="M137.911 150.58L135.731 150.059L131.566 151.406L137.911 150.58Z" fill="#644E9E" fill-opacity="0.7" stroke="#2D264B" stroke-width="0.1" stroke-linejoin="round"/>
<path d="M135.24 149.226L131.566 151.406L136.658 149.376L135.24 149.226Z" fill="#A58EE3" fill-opacity="0.71" stroke="black" stroke-width="0.1" stroke-linejoin="round"/>
<path d="M136.658 149.376L135.24 149.226L135.04 145.06L136.658 149.376Z" fill="#E1D6FF" fill-opacity="0.7" stroke="#2D264B" stroke-width="0.1" stroke-linejoin="round"/>
<path d="M137.911 150.58L136.658 149.376L135.04 145.06L137.911 150.58Z" fill="#6853A3" fill-opacity="0.7" stroke="black" stroke-width="0.1" stroke-linejoin="round"/>
<path d="M137.911 150.58L136.658 149.376L131.566 151.406L137.911 150.58Z" fill="#8970CC" fill-opacity="0.7" stroke="black" stroke-width="0.1" stroke-linejoin="round"/>
<path d="M131.035 145.951L126.952 144.463L131.008 151.136L131.035 145.951Z" fill="#A58EE3" fill-opacity="0.71" stroke="black" stroke-width="0.1" stroke-linejoin="round"/>
<path d="M131.035 145.95L126.951 144.463L134.53 144.775L131.035 145.95Z" fill="#E1D6FF" fill-opacity="0.7" stroke="#2D264B" stroke-width="0.1" stroke-linejoin="round"/>
<path d="M131.035 145.95L131.003 151.119L134.497 148.674L131.035 145.95Z" fill="#8970CC" fill-opacity="0.7" stroke="black" stroke-width="0.1" stroke-linejoin="round"/>
<path d="M131.035 145.951L134.497 148.675L134.53 144.776L131.035 145.951Z" fill="#6853A3" fill-opacity="0.7" stroke="black" stroke-width="0.1" stroke-linejoin="round"/>
</svg>
