<svg width="143" height="157" viewBox="0 0 143 157" fill="none" xmlns="http://www.w3.org/2000/svg">
<path d="M18.9062 82.3594C18.9062 80.325 20.432 78.9688 22.2969 78.9688C24.1617 78.9688 25.6875 80.325 25.6875 82.3594C25.6875 84.3937 24.1617 85.75 22.2969 85.75C20.432 85.75 18.9062 84.3937 18.9062 82.3594Z" stroke="black"/>
<path d="M124.5 11.6406C124.5 9.60625 126.026 8.25 127.891 8.25C129.755 8.25 131.281 9.60625 131.281 11.6406C131.281 13.675 129.755 15.0312 127.891 15.0312C126.026 15.0312 124.5 13.675 124.5 11.6406Z" stroke="black"/>
<path d="M25.6875 149.203C25.6875 147.169 27.2133 145.812 29.0781 145.812C30.943 145.812 32.4687 147.169 32.4687 149.203C32.4687 151.237 30.943 152.594 29.0781 152.594C27.2133 152.594 25.6875 151.237 25.6875 149.203Z" stroke="#BFC1C4"/>
<path d="M54.75 33.4375C54.75 32.275 55.6219 31.5 56.6875 31.5C57.7531 31.5 58.625 32.275 58.625 33.4375C58.625 34.6 57.7531 35.375 56.6875 35.375C55.6219 35.375 54.75 34.6 54.75 33.4375Z" stroke="#BFC1C4"/>
<path d="M89.625 136.125C89.625 134.962 90.4969 134.188 91.5625 134.188C92.6281 134.188 93.5 134.962 93.5 136.125C93.5 137.287 92.6281 138.062 91.5625 138.062C90.4969 138.062 89.625 137.287 89.625 136.125Z" stroke="black"/>
<path d="M0.5 122.562C0.5 121.4 1.37187 120.625 2.4375 120.625C3.50312 120.625 4.375 121.4 4.375 122.562C4.375 123.725 3.50312 124.5 2.4375 124.5C1.37187 124.5 0.5 123.725 0.5 122.562Z" stroke="#BFC1C4"/>
<path d="M138.062 66.375C138.062 65.2125 138.934 64.4375 140 64.4375C141.066 64.4375 141.937 65.2125 141.937 66.375C141.937 67.5375 141.066 68.3125 140 68.3125C138.934 68.3125 138.062 67.5375 138.062 66.375Z" stroke="#BFC1C4"/>
<path d="M98.3893 54.7164L69.4191 25.9569C69.2011 25.7404 69.0785 25.4459 69.0785 25.1387C69.0785 24.7829 69.2375 24.4511 69.5184 24.2327C77.0379 18.3838 91.9438 6.70658 94.7852 4.15889C98.4075 0.910914 102.614 1.25891 106.003 4.15889C108.661 6.43425 123.676 18.2683 131.271 24.2308C131.551 24.4506 131.709 24.7826 131.709 25.1386C131.709 25.446 131.587 25.7408 131.37 25.9583L102.624 54.7085C101.456 55.8772 99.5621 55.8808 98.3893 54.7164Z" fill="#707815" stroke="black" stroke-linejoin="round"/>
<rect x="77.189" y="15.8198" width="2.70349" height="20.7267" fill="#7C8700" fill-opacity="0.49"/>
<path d="M69.9796 8.61035H64.1221V15.3328C64.1221 17.1559 65.4819 18.5231 67.0508 18.5231C68.6198 18.5231 69.9796 17.1559 69.9796 15.3328V8.61035Z" fill="white" stroke="black"/>
<path d="M70.3441 15.4237C70.3441 16.8013 69.0942 18.5232 67.2762 18.5232H80.3431V5.32151C80.3431 2.33676 77.6161 0.5 75.23 0.5C72.8439 0.5 70.3441 2.68116 70.3441 5.32151V15.4237Z" fill="#D9D9D9" stroke="black"/>
<path d="M80.0839 5.26514C80.0839 2.31529 77.3384 0.5 74.936 0.5H113.945C116.347 0.5 119.093 2.31529 119.093 5.26514V47.811H85.1173C81.6854 47.811 80.0839 45.7688 80.0839 42.819V5.26514Z" fill="white" stroke="black"/>
<path d="M69.0785 65.4142V25.7327L94.7852 51.1844C97.4727 53.8453 103.081 54.308 106.236 51.1844C108.76 48.6855 124.27 33.1754 131.709 25.7327V65.4142C131.709 67.728 129.84 68.5379 128.087 68.5379H72.7008C70.9481 68.5379 69.0785 67.728 69.0785 65.4142Z" fill="#B9C627" stroke="black"/>
<path d="M70.25 30.5312C77.6084 37.9909 92.8407 53.4327 94.9025 55.5229C97.4798 58.1356 102.859 58.59 105.884 55.5229C108.305 53.0691 123.178 37.8394 130.312 30.5312" stroke="#E5F066" stroke-linejoin="round" stroke-dasharray="5 5"/>
<path d="M72.7008 68.0872C70.9481 68.0872 69.0785 67.271 69.0785 64.9391V62.7237C69.0785 64.5893 70.4807 64.7059 71.0649 64.1229C72.1166 63.0735 89.527 46.8664 91.3966 45.2341C93.2661 43.6017 95.9536 41.5029 100.277 41.5029C104.6 41.5029 107.405 43.1353 109.625 45.2341C111.845 47.3328 128.788 63.1901 129.723 64.1229C130.7 65.0557 131.709 63.8897 131.709 62.7237V64.9391C131.709 67.271 129.84 68.0872 128.087 68.0872H72.7008Z" fill="#7C8700" fill-opacity="0.49"/>
<path d="M91.3966 47.9139C89.527 49.536 72.1166 65.6411 71.0649 66.6839C70.4807 67.2632 69.0785 67.1473 69.0785 65.2935C69.0785 67.7266 70.9481 68.5377 72.5839 68.5377H127.97C130.424 68.5377 131.709 67.379 131.709 65.2935C131.709 66.4521 130.7 67.6108 129.723 66.6839C128.788 65.757 111.845 49.9995 109.625 47.9139C107.405 45.8284 104.6 44.2063 100.277 44.2063C95.9536 44.2063 93.2661 46.2918 91.3966 47.9139Z" fill="#E5F066" stroke="black" stroke-linejoin="round"/>
<path d="M89.3546 37.2858L90.5115 35.1948L91.6075 37.2858L90.5115 39.2501L89.3546 37.2858Z" fill="#C4C4C4"/>
<path d="M89.3546 37.2858L90.5115 35.1948L91.6075 37.2858L90.5115 39.2501L89.3546 37.2858Z" fill="#9CA43F"/>
<path d="M91.4279 19.0198H110.519M108.446 21.9033H89.3546M91.4279 24.4779H110.519M108.446 27.2585H89.3546M91.4279 30.142H110.519M102.313 37.796C102.313 37.0407 102.572 35.5303 103.608 35.5303C104.127 35.5303 104.299 35.5303 104.299 36.2512C104.299 36.9721 104.127 39.4437 103.608 39.2377C103.09 39.0318 104.904 36.3542 105.941 36.3542C106.977 36.3542 106.286 37.59 107.323 37.59C108.36 37.59 108.964 35.9422 108.446 35.9422C107.928 35.9422 108.273 37.0751 109.31 37.0751C110.139 37.0751 110.462 36.0452 110.519 35.5303M89.9112 8.18653V6.82141V5.4563H91.2817C92.0386 5.4563 92.6522 6.06748 92.6522 6.82141C92.6522 7.57535 92.0386 8.18653 91.2817 8.18653H90.5965M89.9112 8.18653V10.9736M89.9112 8.18653H90.5965M90.5965 8.18653L92.6522 10.9736M93.1661 8.18653V6.82141V5.4563H95.5074M93.1661 8.18653V10.9736H95.5074M93.1661 8.18653H94.7079M98.8194 6.82141C98.8194 6.06748 98.2058 5.4563 97.4489 5.4563C96.692 5.4563 96.0784 6.06748 96.0784 6.82141V9.55165C96.0784 10.3056 96.692 10.9168 97.4489 10.9168C98.2058 10.9168 98.8194 10.3056 98.8194 9.55165M99.4476 8.18653V6.82141V5.4563H101.789M99.4476 8.18653V10.9736H101.789M99.4476 8.18653H100.989M102.417 5.4563H103.588M103.588 5.4563H104.758M103.588 5.4563V10.9736M102.417 10.9736H103.588M103.588 10.9736H104.758M105.329 8.18653V6.82141V5.4563H106.7C107.457 5.4563 108.07 6.06748 108.07 6.82141C108.07 7.57535 107.457 8.18653 106.7 8.18653H106.014H105.329ZM105.329 8.18653V10.9736M108.641 5.4563H109.812M109.812 5.4563H110.983M109.812 5.4563V10.9736" stroke="black" stroke-linecap="round" stroke-linejoin="round"/>
<path d="M43.6699 131.795V156H34.5596V131.795H43.6699Z" fill="#8A74C9" stroke="black"/>
<path d="M8.25 132.295H35.0596H54.6599V103.458C54.6599 96.9244 60.0668 91.968 66.1497 91.968H21.9927C15.4593 91.968 8.25 96.0232 8.25 105.711V132.295Z" fill="#A890F0" stroke="black"/>
<path d="M54.6599 103.458C54.6599 96.9244 60.0669 91.968 66.1497 91.968C72.2326 91.968 77.6395 96.9244 77.6395 103.458V132.295H54.6599V103.458Z" fill="#645296" stroke="black"/>
<path d="M77.9343 131.795L78.0769 132.053L90.9187 155.258L91.3289 156H68.573L68.4265 155.761L54.2332 132.556L53.7683 131.795H77.9343Z" fill="#8A74C9" stroke="black"/>
<path fill-rule="evenodd" clip-rule="evenodd" d="M64.5726 110.893H86.4258L77.9164 119.055L86.4258 125.311H64.5726L72.9084 119.055L64.5726 110.893Z" fill="#E5F066"/>
<path d="M86.4258 125.311V110.893L77.9164 119.055L86.4258 125.311Z" fill="#E5F066"/>
<path d="M64.5726 110.893V125.311L72.9084 119.055L64.5726 110.893Z" fill="#E5F066"/>
<path d="M64.5726 110.893V125.311M64.5726 110.893H86.4258M64.5726 110.893L72.9084 119.055M64.5726 125.311H86.4258M64.5726 125.311L72.9084 119.055M86.4258 125.311V110.893M86.4258 125.311L77.9164 119.055M86.4258 110.893L77.9164 119.055M72.9084 119.055L75.3866 121.481L77.9164 119.055" stroke="black" stroke-linejoin="round"/>
<path d="M86.4258 125.311V110.893L77.9164 119.055L86.4258 125.311Z" fill="#A7B036"/>
<path d="M64.5726 110.893V125.311L72.9084 119.055L64.5726 110.893Z" fill="#A7B036"/>
<path d="M86.4258 125.311V110.893L77.9164 119.055L86.4258 125.311Z" stroke="black" stroke-linejoin="round"/>
<path d="M64.5726 110.893V125.311L72.9084 119.055L64.5726 110.893Z" stroke="black" stroke-linejoin="round"/>
<path d="M15.2339 105.035C13.8822 105.035 12.7557 106.387 12.7557 107.513V118.552C12.7557 120.129 13.8822 121.031 15.2339 121.031H47.9011C49.4781 121.031 50.3793 119.904 50.3793 118.552V107.513C50.3793 105.936 49.2528 105.035 47.9011 105.035H15.2339Z" fill="#645296"/>
<path d="M15.2339 124.41C13.8822 124.41 12.7557 125.762 12.7557 126.888C12.7557 128.465 13.8822 129.366 15.2339 129.366H47.9011C49.4781 129.366 50.3793 128.24 50.3793 126.888C50.3793 125.311 49.2528 124.41 47.9011 124.41H15.2339Z" fill="#645296"/>
<path d="M115.687 121.809L116.941 123.481L117.191 119.015L95.6056 119.877L115.687 121.809Z" stroke="#BFC1C3" stroke-linejoin="round"/>
<path d="M95.6057 119.877L116.941 123.481L115.687 121.81L95.6057 119.877Z" stroke="#BFC1C3" stroke-linejoin="round"/>
<path d="M120.388 115.302L117.191 119.015L95.6056 119.877L120.388 115.302Z" fill="white" stroke="#BFC1C3" stroke-linejoin="round"/>
<path d="M112.321 127.084L115.687 121.809L95.6055 119.877L112.321 127.084Z" fill="white" stroke="#BFC1C3" stroke-linejoin="round"/>
<path d="M76.2878 18.9739C75.0777 18.9739 71.8336 18.9678 70.6153 18.9617C63.4278 18.9258 56.1764 18.8895 49.8035 20.0999C42.2692 21.5308 35.6805 24.7509 31.6557 31.9468C27.7354 38.9556 25.9938 50.2553 28.6971 59.9227C30.0583 64.7903 32.5694 69.3247 36.5839 72.674C40.6127 76.0351 46.0422 78.1072 53.0564 78.2251C57.8015 78.3048 63.129 78.167 68.6763 78.0236C71.0085 77.9633 73.3795 77.9019 75.7625 77.8554C83.8544 77.6972 92.1403 77.7063 99.7864 78.4709C107.448 79.2371 114.345 80.7516 119.713 83.5297C125.034 86.2834 128.811 90.2502 130.416 95.9968C133.107 105.634 131.243 111.483 128.22 114.967C125.12 118.54 120.52 119.959 117.209 120.131M72.2326 22.1279C71.5567 22.1279 70.8808 22.1163 70.5447 22.1163C63.3343 22.1163 56.4385 22.0502 50.392 23.1985C43.3951 24.5274 37.8182 27.3902 34.4084 33.4864C30.894 39.7697 29.2563 50.2106 31.7347 59.0733C32.9644 63.4708 35.1844 67.3988 38.6044 70.2521C42.0102 73.0935 46.7187 74.964 53.1094 75.0714C57.784 75.15 63.0028 75.015 68.5168 74.8723C70.8644 74.8116 73.2654 74.7495 75.7008 74.7019C83.8157 74.5433 92.2576 74.5482 100.1 75.3325C107.927 76.1152 115.28 77.6843 121.163 80.7286C127.092 83.7972 131.566 88.3915 133.454 95.1484C136.349 105.517 134.496 112.547 130.603 117.034C126.786 121.433 120.964 123.08 117.065 123.283" stroke="url(#paint0_linear_47_578)"/>
<defs>
<linearGradient id="paint0_linear_47_578" x1="118.192" y1="121.031" x2="51.4904" y2="31.6404" gradientUnits="userSpaceOnUse">
<stop stop-color="#BFC1C4"/>
<stop offset="1"/>
</linearGradient>
</defs>
</svg>
